G75*
%MOIN*%
%OFA0B0*%
%FSLAX25Y25*%
%IPPOS*%
%LPD*%
%AMOC8*
5,1,8,0,0,1.08239X$1,22.5*
%
%ADD10C,0.00000*%
%ADD11R,0.22441X0.21654*%
%ADD12R,0.06693X0.05118*%
%ADD13C,0.05315*%
%ADD14R,0.05394X0.10709*%
%ADD15C,0.05906*%
%ADD16C,0.01555*%
%ADD17R,0.08268X0.06693*%
%ADD18R,0.03150X0.03150*%
%ADD19R,0.02008X0.02362*%
%ADD20R,0.02362X0.02008*%
%ADD21R,0.05906X0.01575*%
%ADD22R,0.08800X0.04800*%
%ADD23R,0.08661X0.14173*%
%ADD24R,0.10709X0.05394*%
%ADD25R,0.02362X0.01378*%
%ADD26C,0.03562*%
%ADD27R,0.05512X0.03937*%
%ADD28R,0.03937X0.05512*%
%ADD29R,0.07165X0.04724*%
%ADD30R,0.04724X0.07165*%
%ADD31C,0.00217*%
%ADD32R,0.06063X0.06063*%
%ADD33C,0.06201*%
D10*
X0105631Y0113505D02*
X0105631Y0270985D01*
X0105654Y0272888D01*
X0105723Y0274789D01*
X0105838Y0276689D01*
X0105999Y0278585D01*
X0106205Y0280476D01*
X0106457Y0282362D01*
X0106755Y0284241D01*
X0107098Y0286113D01*
X0107486Y0287976D01*
X0107919Y0289829D01*
X0108397Y0291671D01*
X0108919Y0293500D01*
X0109485Y0295317D01*
X0110095Y0297119D01*
X0110748Y0298907D01*
X0111444Y0300677D01*
X0112183Y0302431D01*
X0112964Y0304166D01*
X0113786Y0305882D01*
X0114650Y0307577D01*
X0115555Y0309251D01*
X0116500Y0310903D01*
X0117484Y0312531D01*
X0118507Y0314136D01*
X0119569Y0315714D01*
X0120669Y0317267D01*
X0121806Y0318793D01*
X0122979Y0320291D01*
X0124189Y0321760D01*
X0125433Y0323199D01*
X0126712Y0324608D01*
X0128025Y0325986D01*
X0129370Y0327331D01*
X0130748Y0328644D01*
X0132157Y0329923D01*
X0133596Y0331167D01*
X0135065Y0332377D01*
X0136563Y0333550D01*
X0138089Y0334687D01*
X0139642Y0335787D01*
X0141220Y0336849D01*
X0142825Y0337872D01*
X0144453Y0338856D01*
X0146105Y0339801D01*
X0147779Y0340706D01*
X0149474Y0341570D01*
X0151190Y0342392D01*
X0152925Y0343173D01*
X0154679Y0343912D01*
X0156449Y0344608D01*
X0158237Y0345261D01*
X0160039Y0345871D01*
X0161856Y0346437D01*
X0163685Y0346959D01*
X0165527Y0347437D01*
X0167380Y0347870D01*
X0169243Y0348258D01*
X0171115Y0348601D01*
X0172994Y0348899D01*
X0174880Y0349151D01*
X0176771Y0349357D01*
X0178667Y0349518D01*
X0180567Y0349633D01*
X0182468Y0349702D01*
X0184371Y0349725D01*
X0263111Y0349725D01*
X0263111Y0302481D01*
X0361536Y0302481D01*
X0361536Y0349725D01*
X0440276Y0349725D01*
X0440276Y0034765D01*
X0361536Y0034765D01*
X0361536Y0082009D01*
X0263111Y0082009D01*
X0263111Y0034765D01*
X0184371Y0034765D01*
X0182468Y0034788D01*
X0180567Y0034857D01*
X0178667Y0034972D01*
X0176771Y0035133D01*
X0174880Y0035339D01*
X0172994Y0035591D01*
X0171115Y0035889D01*
X0169243Y0036232D01*
X0167380Y0036620D01*
X0165527Y0037053D01*
X0163685Y0037531D01*
X0161856Y0038053D01*
X0160039Y0038619D01*
X0158237Y0039229D01*
X0156449Y0039882D01*
X0154679Y0040578D01*
X0152925Y0041317D01*
X0151190Y0042098D01*
X0149474Y0042920D01*
X0147779Y0043784D01*
X0146105Y0044689D01*
X0144453Y0045634D01*
X0142825Y0046618D01*
X0141220Y0047641D01*
X0139642Y0048703D01*
X0138089Y0049803D01*
X0136563Y0050940D01*
X0135065Y0052113D01*
X0133596Y0053323D01*
X0132157Y0054567D01*
X0130748Y0055846D01*
X0129370Y0057159D01*
X0128025Y0058504D01*
X0126712Y0059882D01*
X0125433Y0061291D01*
X0124189Y0062730D01*
X0122979Y0064199D01*
X0121806Y0065697D01*
X0120669Y0067223D01*
X0119569Y0068776D01*
X0118507Y0070354D01*
X0117484Y0071959D01*
X0116500Y0073587D01*
X0115555Y0075239D01*
X0114650Y0076913D01*
X0113786Y0078608D01*
X0112964Y0080324D01*
X0112183Y0082059D01*
X0111444Y0083813D01*
X0110748Y0085583D01*
X0110095Y0087371D01*
X0109485Y0089173D01*
X0108919Y0090990D01*
X0108397Y0092819D01*
X0107919Y0094661D01*
X0107486Y0096514D01*
X0107098Y0098377D01*
X0106755Y0100249D01*
X0106457Y0102128D01*
X0106205Y0104014D01*
X0105999Y0105905D01*
X0105838Y0107801D01*
X0105723Y0109701D01*
X0105654Y0111602D01*
X0105631Y0113505D01*
D11*
X0210670Y0209568D03*
D12*
X0236024Y0218564D03*
X0236024Y0200572D03*
D13*
X0214528Y0078505D03*
X0214528Y0070631D03*
D14*
X0214209Y0158780D03*
X0225398Y0158780D03*
X0225398Y0180434D03*
X0214209Y0180434D03*
X0214209Y0235552D03*
X0225398Y0235552D03*
X0225398Y0251300D03*
X0214209Y0251300D03*
X0290981Y0251300D03*
X0302170Y0251300D03*
D15*
X0274765Y0248229D03*
X0274765Y0258229D03*
X0264765Y0258229D03*
X0264765Y0248229D03*
X0264765Y0238229D03*
X0274765Y0238229D03*
X0274765Y0228229D03*
X0274765Y0218229D03*
X0264765Y0218229D03*
X0264765Y0228229D03*
X0264765Y0208229D03*
X0274765Y0208229D03*
X0274765Y0198229D03*
X0264765Y0198229D03*
X0264765Y0188229D03*
X0274765Y0188229D03*
X0274765Y0178229D03*
X0264765Y0178229D03*
X0264765Y0168229D03*
X0274765Y0168229D03*
X0274765Y0158229D03*
X0274765Y0148229D03*
X0264765Y0148229D03*
X0264765Y0158229D03*
X0264765Y0138229D03*
X0274765Y0138229D03*
X0274765Y0128229D03*
X0264765Y0128229D03*
X0184765Y0128229D03*
X0184765Y0138229D03*
X0174765Y0138229D03*
X0174765Y0128229D03*
X0174765Y0148229D03*
X0184765Y0148229D03*
X0184765Y0158229D03*
X0184765Y0168229D03*
X0174765Y0168229D03*
X0174765Y0158229D03*
X0174765Y0178229D03*
X0184765Y0178229D03*
X0184765Y0188229D03*
X0174765Y0188229D03*
X0174765Y0198229D03*
X0184765Y0198229D03*
X0184765Y0208229D03*
X0174765Y0208229D03*
X0174765Y0218229D03*
X0184765Y0218229D03*
X0184765Y0228229D03*
X0184765Y0238229D03*
X0174765Y0238229D03*
X0174765Y0228229D03*
X0174765Y0248229D03*
X0184765Y0248229D03*
X0184765Y0258229D03*
X0174765Y0258229D03*
X0129882Y0226376D03*
X0121221Y0221376D03*
X0131221Y0204056D03*
X0139882Y0209056D03*
X0131026Y0180513D03*
X0139686Y0175513D03*
X0129686Y0158192D03*
X0121026Y0163192D03*
X0191930Y0050670D03*
X0191930Y0040670D03*
X0211930Y0040670D03*
X0211930Y0050670D03*
X0401182Y0046851D03*
X0411182Y0046851D03*
X0411182Y0056851D03*
X0401182Y0056851D03*
X0401182Y0066851D03*
X0411182Y0066851D03*
X0411182Y0076851D03*
X0401182Y0076851D03*
X0401182Y0086851D03*
X0411182Y0086851D03*
X0410906Y0297914D03*
X0400906Y0297914D03*
X0400906Y0307914D03*
X0410906Y0307914D03*
X0410906Y0317914D03*
X0400906Y0317914D03*
X0400906Y0327914D03*
X0410906Y0327914D03*
X0410906Y0337914D03*
X0400906Y0337914D03*
X0211930Y0333820D03*
X0211930Y0343820D03*
X0191930Y0343820D03*
X0191930Y0333820D03*
D16*
X0196152Y0284735D02*
X0206842Y0284735D01*
X0206842Y0280069D01*
X0196152Y0280069D01*
X0196152Y0284735D01*
X0196152Y0281546D02*
X0206842Y0281546D01*
X0206842Y0283023D02*
X0196152Y0283023D01*
X0196152Y0284500D02*
X0206842Y0284500D01*
X0215837Y0284735D02*
X0226527Y0284735D01*
X0226527Y0280069D01*
X0215837Y0280069D01*
X0215837Y0284735D01*
X0215837Y0281546D02*
X0226527Y0281546D01*
X0226527Y0283023D02*
X0215837Y0283023D01*
X0215837Y0284500D02*
X0226527Y0284500D01*
X0230897Y0109539D02*
X0220207Y0109539D01*
X0230897Y0109539D02*
X0230897Y0104873D01*
X0220207Y0104873D01*
X0220207Y0109539D01*
X0220207Y0106350D02*
X0230897Y0106350D01*
X0230897Y0107827D02*
X0220207Y0107827D01*
X0220207Y0109304D02*
X0230897Y0109304D01*
X0247924Y0099361D02*
X0258614Y0099361D01*
X0247924Y0099361D02*
X0247924Y0104027D01*
X0258614Y0104027D01*
X0258614Y0099361D01*
X0258614Y0100838D02*
X0247924Y0100838D01*
X0247924Y0102315D02*
X0258614Y0102315D01*
X0258614Y0103792D02*
X0247924Y0103792D01*
X0267609Y0099361D02*
X0278299Y0099361D01*
X0267609Y0099361D02*
X0267609Y0104027D01*
X0278299Y0104027D01*
X0278299Y0099361D01*
X0278299Y0100838D02*
X0267609Y0100838D01*
X0267609Y0102315D02*
X0278299Y0102315D01*
X0278299Y0103792D02*
X0267609Y0103792D01*
X0211212Y0109539D02*
X0200522Y0109539D01*
X0211212Y0109539D02*
X0211212Y0104873D01*
X0200522Y0104873D01*
X0200522Y0109539D01*
X0200522Y0106350D02*
X0211212Y0106350D01*
X0211212Y0107827D02*
X0200522Y0107827D01*
X0200522Y0109304D02*
X0211212Y0109304D01*
D17*
X0241024Y0285276D03*
X0241024Y0299056D03*
X0255985Y0285276D03*
D18*
X0249725Y0272954D03*
X0243820Y0272954D03*
X0182402Y0280434D03*
X0182402Y0286339D03*
X0176891Y0290670D03*
X0170985Y0290670D03*
X0165473Y0286339D03*
X0165473Y0280434D03*
X0170828Y0275080D03*
X0176733Y0275080D03*
X0159174Y0274922D03*
X0153269Y0274922D03*
X0146969Y0280434D03*
X0146969Y0286339D03*
X0153269Y0290670D03*
X0159174Y0290670D03*
X0172560Y0098150D03*
X0172560Y0092245D03*
X0160946Y0094489D03*
X0155040Y0094489D03*
X0148269Y0088859D03*
X0148269Y0082954D03*
X0155119Y0077402D03*
X0161024Y0077402D03*
X0172560Y0078465D03*
X0172560Y0072560D03*
D19*
X0182619Y0072166D03*
X0186123Y0072166D03*
X0186123Y0093820D03*
X0182619Y0093820D03*
X0154981Y0104961D03*
X0151477Y0104961D03*
X0136871Y0104961D03*
X0133367Y0104961D03*
X0135257Y0084056D03*
X0138761Y0084056D03*
X0208209Y0141064D03*
X0211713Y0141064D03*
X0220020Y0141064D03*
X0223524Y0141064D03*
X0235769Y0091851D03*
X0239272Y0091851D03*
X0254627Y0058269D03*
X0258131Y0058269D03*
X0236635Y0051812D03*
X0233131Y0051812D03*
X0233800Y0040670D03*
X0237304Y0040670D03*
X0159548Y0211261D03*
X0156044Y0211261D03*
X0152658Y0259174D03*
X0149154Y0259174D03*
X0144509Y0272284D03*
X0141005Y0272284D03*
X0221989Y0330040D03*
X0225493Y0330040D03*
X0225493Y0341851D03*
X0221989Y0341851D03*
X0261359Y0274922D03*
X0264863Y0274922D03*
X0273170Y0269017D03*
X0276674Y0269017D03*
D20*
X0243426Y0262894D03*
X0243426Y0259391D03*
X0194213Y0298761D03*
X0194213Y0302265D03*
X0184371Y0302265D03*
X0184371Y0298761D03*
X0174528Y0298761D03*
X0174528Y0302265D03*
X0164686Y0302265D03*
X0164686Y0298761D03*
X0154843Y0298761D03*
X0154843Y0302265D03*
X0145001Y0302265D03*
X0145001Y0298761D03*
X0150906Y0227461D03*
X0150906Y0223957D03*
X0158780Y0190060D03*
X0158780Y0186556D03*
X0158780Y0178249D03*
X0158780Y0174745D03*
X0158780Y0166438D03*
X0158780Y0162934D03*
X0158780Y0154627D03*
X0158780Y0151123D03*
X0158780Y0142816D03*
X0158780Y0139312D03*
X0158780Y0131005D03*
X0158780Y0127501D03*
X0135158Y0133406D03*
X0135158Y0136910D03*
X0139095Y0149154D03*
X0139095Y0152658D03*
X0160670Y0068052D03*
X0160670Y0064548D03*
X0292639Y0202304D03*
X0292639Y0205808D03*
X0257875Y0336438D03*
X0257875Y0339942D03*
D21*
X0338603Y0177304D03*
X0338603Y0174745D03*
X0338603Y0172186D03*
X0338603Y0169627D03*
X0338603Y0167068D03*
X0338603Y0164509D03*
X0338603Y0161950D03*
X0338603Y0159391D03*
X0338603Y0156831D03*
X0338603Y0154272D03*
X0338603Y0151713D03*
X0338603Y0149154D03*
X0367146Y0149154D03*
X0367146Y0151713D03*
X0367146Y0154272D03*
X0367146Y0156831D03*
X0367146Y0159391D03*
X0367146Y0161950D03*
X0367146Y0164509D03*
X0367146Y0167068D03*
X0367146Y0169627D03*
X0367146Y0172186D03*
X0367146Y0174745D03*
X0367146Y0177304D03*
D22*
X0379209Y0232554D03*
X0379209Y0241654D03*
X0379209Y0250754D03*
D23*
X0354808Y0241654D03*
D24*
X0312324Y0231304D03*
X0312324Y0220115D03*
D25*
X0314292Y0206123D03*
X0314292Y0201989D03*
X0304450Y0201989D03*
X0304450Y0206123D03*
X0294607Y0223643D03*
X0294607Y0227776D03*
X0289804Y0187580D03*
X0289804Y0183446D03*
D26*
X0404843Y0115473D03*
X0414686Y0115473D03*
X0424528Y0115473D03*
D27*
X0240694Y0078072D03*
X0230410Y0081812D03*
X0230410Y0074331D03*
X0246442Y0334450D03*
X0246442Y0341930D03*
X0236158Y0338190D03*
D28*
X0277520Y0288568D03*
X0273780Y0278284D03*
X0281261Y0278284D03*
X0154646Y0248568D03*
X0147166Y0248568D03*
X0150906Y0238284D03*
X0135788Y0124709D03*
X0132048Y0114426D03*
X0139528Y0114426D03*
X0251300Y0049906D03*
X0258780Y0049906D03*
X0255040Y0039623D03*
D29*
X0298544Y0129410D03*
X0298544Y0140906D03*
X0314292Y0140906D03*
X0314292Y0129410D03*
D30*
X0304292Y0158780D03*
X0292796Y0158780D03*
D31*
X0302806Y0177136D02*
X0302806Y0179440D01*
X0302806Y0177136D02*
X0302156Y0177136D01*
X0302156Y0179440D01*
X0302806Y0179440D01*
X0302806Y0177342D02*
X0302156Y0177342D01*
X0302156Y0177548D02*
X0302806Y0177548D01*
X0302806Y0177754D02*
X0302156Y0177754D01*
X0302156Y0177960D02*
X0302806Y0177960D01*
X0302806Y0178166D02*
X0302156Y0178166D01*
X0302156Y0178372D02*
X0302806Y0178372D01*
X0302806Y0178578D02*
X0302156Y0178578D01*
X0302156Y0178784D02*
X0302806Y0178784D01*
X0302806Y0178990D02*
X0302156Y0178990D01*
X0302156Y0179196D02*
X0302806Y0179196D01*
X0302806Y0179402D02*
X0302156Y0179402D01*
X0301487Y0180109D02*
X0299183Y0180109D01*
X0299183Y0180759D01*
X0301487Y0180759D01*
X0301487Y0180109D01*
X0301487Y0180315D02*
X0299183Y0180315D01*
X0299183Y0180521D02*
X0301487Y0180521D01*
X0301487Y0180727D02*
X0299183Y0180727D01*
X0299183Y0181684D02*
X0301487Y0181684D01*
X0299183Y0181684D02*
X0299183Y0182334D01*
X0301487Y0182334D01*
X0301487Y0181684D01*
X0301487Y0181890D02*
X0299183Y0181890D01*
X0299183Y0182096D02*
X0301487Y0182096D01*
X0301487Y0182302D02*
X0299183Y0182302D01*
X0299183Y0183258D02*
X0301487Y0183258D01*
X0299183Y0183258D02*
X0299183Y0183908D01*
X0301487Y0183908D01*
X0301487Y0183258D01*
X0301487Y0183464D02*
X0299183Y0183464D01*
X0299183Y0183670D02*
X0301487Y0183670D01*
X0301487Y0183876D02*
X0299183Y0183876D01*
X0299183Y0184833D02*
X0301487Y0184833D01*
X0299183Y0184833D02*
X0299183Y0185483D01*
X0301487Y0185483D01*
X0301487Y0184833D01*
X0301487Y0185039D02*
X0299183Y0185039D01*
X0299183Y0185245D02*
X0301487Y0185245D01*
X0301487Y0185451D02*
X0299183Y0185451D01*
X0299183Y0186408D02*
X0301487Y0186408D01*
X0299183Y0186408D02*
X0299183Y0187058D01*
X0301487Y0187058D01*
X0301487Y0186408D01*
X0301487Y0186614D02*
X0299183Y0186614D01*
X0299183Y0186820D02*
X0301487Y0186820D01*
X0301487Y0187026D02*
X0299183Y0187026D01*
X0299183Y0187983D02*
X0301487Y0187983D01*
X0299183Y0187983D02*
X0299183Y0188633D01*
X0301487Y0188633D01*
X0301487Y0187983D01*
X0301487Y0188189D02*
X0299183Y0188189D01*
X0299183Y0188395D02*
X0301487Y0188395D01*
X0301487Y0188601D02*
X0299183Y0188601D01*
X0302156Y0189302D02*
X0302156Y0191606D01*
X0302806Y0191606D01*
X0302806Y0189302D01*
X0302156Y0189302D01*
X0302156Y0189508D02*
X0302806Y0189508D01*
X0302806Y0189714D02*
X0302156Y0189714D01*
X0302156Y0189920D02*
X0302806Y0189920D01*
X0302806Y0190126D02*
X0302156Y0190126D01*
X0302156Y0190332D02*
X0302806Y0190332D01*
X0302806Y0190538D02*
X0302156Y0190538D01*
X0302156Y0190744D02*
X0302806Y0190744D01*
X0302806Y0190950D02*
X0302156Y0190950D01*
X0302156Y0191156D02*
X0302806Y0191156D01*
X0302806Y0191362D02*
X0302156Y0191362D01*
X0302156Y0191568D02*
X0302806Y0191568D01*
X0303731Y0191606D02*
X0303731Y0189302D01*
X0303731Y0191606D02*
X0304381Y0191606D01*
X0304381Y0189302D01*
X0303731Y0189302D01*
X0303731Y0189508D02*
X0304381Y0189508D01*
X0304381Y0189714D02*
X0303731Y0189714D01*
X0303731Y0189920D02*
X0304381Y0189920D01*
X0304381Y0190126D02*
X0303731Y0190126D01*
X0303731Y0190332D02*
X0304381Y0190332D01*
X0304381Y0190538D02*
X0303731Y0190538D01*
X0303731Y0190744D02*
X0304381Y0190744D01*
X0304381Y0190950D02*
X0303731Y0190950D01*
X0303731Y0191156D02*
X0304381Y0191156D01*
X0304381Y0191362D02*
X0303731Y0191362D01*
X0303731Y0191568D02*
X0304381Y0191568D01*
X0305306Y0191606D02*
X0305306Y0189302D01*
X0305306Y0191606D02*
X0305956Y0191606D01*
X0305956Y0189302D01*
X0305306Y0189302D01*
X0305306Y0189508D02*
X0305956Y0189508D01*
X0305956Y0189714D02*
X0305306Y0189714D01*
X0305306Y0189920D02*
X0305956Y0189920D01*
X0305956Y0190126D02*
X0305306Y0190126D01*
X0305306Y0190332D02*
X0305956Y0190332D01*
X0305956Y0190538D02*
X0305306Y0190538D01*
X0305306Y0190744D02*
X0305956Y0190744D01*
X0305956Y0190950D02*
X0305306Y0190950D01*
X0305306Y0191156D02*
X0305956Y0191156D01*
X0305956Y0191362D02*
X0305306Y0191362D01*
X0305306Y0191568D02*
X0305956Y0191568D01*
X0306881Y0191606D02*
X0306881Y0189302D01*
X0306881Y0191606D02*
X0307531Y0191606D01*
X0307531Y0189302D01*
X0306881Y0189302D01*
X0306881Y0189508D02*
X0307531Y0189508D01*
X0307531Y0189714D02*
X0306881Y0189714D01*
X0306881Y0189920D02*
X0307531Y0189920D01*
X0307531Y0190126D02*
X0306881Y0190126D01*
X0306881Y0190332D02*
X0307531Y0190332D01*
X0307531Y0190538D02*
X0306881Y0190538D01*
X0306881Y0190744D02*
X0307531Y0190744D01*
X0307531Y0190950D02*
X0306881Y0190950D01*
X0306881Y0191156D02*
X0307531Y0191156D01*
X0307531Y0191362D02*
X0306881Y0191362D01*
X0306881Y0191568D02*
X0307531Y0191568D01*
X0308455Y0191606D02*
X0308455Y0189302D01*
X0308455Y0191606D02*
X0309105Y0191606D01*
X0309105Y0189302D01*
X0308455Y0189302D01*
X0308455Y0189508D02*
X0309105Y0189508D01*
X0309105Y0189714D02*
X0308455Y0189714D01*
X0308455Y0189920D02*
X0309105Y0189920D01*
X0309105Y0190126D02*
X0308455Y0190126D01*
X0308455Y0190332D02*
X0309105Y0190332D01*
X0309105Y0190538D02*
X0308455Y0190538D01*
X0308455Y0190744D02*
X0309105Y0190744D01*
X0309105Y0190950D02*
X0308455Y0190950D01*
X0308455Y0191156D02*
X0309105Y0191156D01*
X0309105Y0191362D02*
X0308455Y0191362D01*
X0308455Y0191568D02*
X0309105Y0191568D01*
X0310030Y0191606D02*
X0310030Y0189302D01*
X0310030Y0191606D02*
X0310680Y0191606D01*
X0310680Y0189302D01*
X0310030Y0189302D01*
X0310030Y0189508D02*
X0310680Y0189508D01*
X0310680Y0189714D02*
X0310030Y0189714D01*
X0310030Y0189920D02*
X0310680Y0189920D01*
X0310680Y0190126D02*
X0310030Y0190126D01*
X0310030Y0190332D02*
X0310680Y0190332D01*
X0310680Y0190538D02*
X0310030Y0190538D01*
X0310030Y0190744D02*
X0310680Y0190744D01*
X0310680Y0190950D02*
X0310030Y0190950D01*
X0310030Y0191156D02*
X0310680Y0191156D01*
X0310680Y0191362D02*
X0310030Y0191362D01*
X0310030Y0191568D02*
X0310680Y0191568D01*
X0311349Y0188633D02*
X0313653Y0188633D01*
X0313653Y0187983D01*
X0311349Y0187983D01*
X0311349Y0188633D01*
X0311349Y0188189D02*
X0313653Y0188189D01*
X0313653Y0188395D02*
X0311349Y0188395D01*
X0311349Y0188601D02*
X0313653Y0188601D01*
X0313653Y0187058D02*
X0311349Y0187058D01*
X0313653Y0187058D02*
X0313653Y0186408D01*
X0311349Y0186408D01*
X0311349Y0187058D01*
X0311349Y0186614D02*
X0313653Y0186614D01*
X0313653Y0186820D02*
X0311349Y0186820D01*
X0311349Y0187026D02*
X0313653Y0187026D01*
X0313653Y0185483D02*
X0311349Y0185483D01*
X0313653Y0185483D02*
X0313653Y0184833D01*
X0311349Y0184833D01*
X0311349Y0185483D01*
X0311349Y0185039D02*
X0313653Y0185039D01*
X0313653Y0185245D02*
X0311349Y0185245D01*
X0311349Y0185451D02*
X0313653Y0185451D01*
X0313653Y0183908D02*
X0311349Y0183908D01*
X0313653Y0183908D02*
X0313653Y0183258D01*
X0311349Y0183258D01*
X0311349Y0183908D01*
X0311349Y0183464D02*
X0313653Y0183464D01*
X0313653Y0183670D02*
X0311349Y0183670D01*
X0311349Y0183876D02*
X0313653Y0183876D01*
X0313653Y0182334D02*
X0311349Y0182334D01*
X0313653Y0182334D02*
X0313653Y0181684D01*
X0311349Y0181684D01*
X0311349Y0182334D01*
X0311349Y0181890D02*
X0313653Y0181890D01*
X0313653Y0182096D02*
X0311349Y0182096D01*
X0311349Y0182302D02*
X0313653Y0182302D01*
X0313653Y0180759D02*
X0311349Y0180759D01*
X0313653Y0180759D02*
X0313653Y0180109D01*
X0311349Y0180109D01*
X0311349Y0180759D01*
X0311349Y0180315D02*
X0313653Y0180315D01*
X0313653Y0180521D02*
X0311349Y0180521D01*
X0311349Y0180727D02*
X0313653Y0180727D01*
X0310680Y0179440D02*
X0310680Y0177136D01*
X0310030Y0177136D01*
X0310030Y0179440D01*
X0310680Y0179440D01*
X0310680Y0177342D02*
X0310030Y0177342D01*
X0310030Y0177548D02*
X0310680Y0177548D01*
X0310680Y0177754D02*
X0310030Y0177754D01*
X0310030Y0177960D02*
X0310680Y0177960D01*
X0310680Y0178166D02*
X0310030Y0178166D01*
X0310030Y0178372D02*
X0310680Y0178372D01*
X0310680Y0178578D02*
X0310030Y0178578D01*
X0310030Y0178784D02*
X0310680Y0178784D01*
X0310680Y0178990D02*
X0310030Y0178990D01*
X0310030Y0179196D02*
X0310680Y0179196D01*
X0310680Y0179402D02*
X0310030Y0179402D01*
X0309105Y0179440D02*
X0309105Y0177136D01*
X0308455Y0177136D01*
X0308455Y0179440D01*
X0309105Y0179440D01*
X0309105Y0177342D02*
X0308455Y0177342D01*
X0308455Y0177548D02*
X0309105Y0177548D01*
X0309105Y0177754D02*
X0308455Y0177754D01*
X0308455Y0177960D02*
X0309105Y0177960D01*
X0309105Y0178166D02*
X0308455Y0178166D01*
X0308455Y0178372D02*
X0309105Y0178372D01*
X0309105Y0178578D02*
X0308455Y0178578D01*
X0308455Y0178784D02*
X0309105Y0178784D01*
X0309105Y0178990D02*
X0308455Y0178990D01*
X0308455Y0179196D02*
X0309105Y0179196D01*
X0309105Y0179402D02*
X0308455Y0179402D01*
X0307531Y0179440D02*
X0307531Y0177136D01*
X0306881Y0177136D01*
X0306881Y0179440D01*
X0307531Y0179440D01*
X0307531Y0177342D02*
X0306881Y0177342D01*
X0306881Y0177548D02*
X0307531Y0177548D01*
X0307531Y0177754D02*
X0306881Y0177754D01*
X0306881Y0177960D02*
X0307531Y0177960D01*
X0307531Y0178166D02*
X0306881Y0178166D01*
X0306881Y0178372D02*
X0307531Y0178372D01*
X0307531Y0178578D02*
X0306881Y0178578D01*
X0306881Y0178784D02*
X0307531Y0178784D01*
X0307531Y0178990D02*
X0306881Y0178990D01*
X0306881Y0179196D02*
X0307531Y0179196D01*
X0307531Y0179402D02*
X0306881Y0179402D01*
X0305956Y0179440D02*
X0305956Y0177136D01*
X0305306Y0177136D01*
X0305306Y0179440D01*
X0305956Y0179440D01*
X0305956Y0177342D02*
X0305306Y0177342D01*
X0305306Y0177548D02*
X0305956Y0177548D01*
X0305956Y0177754D02*
X0305306Y0177754D01*
X0305306Y0177960D02*
X0305956Y0177960D01*
X0305956Y0178166D02*
X0305306Y0178166D01*
X0305306Y0178372D02*
X0305956Y0178372D01*
X0305956Y0178578D02*
X0305306Y0178578D01*
X0305306Y0178784D02*
X0305956Y0178784D01*
X0305956Y0178990D02*
X0305306Y0178990D01*
X0305306Y0179196D02*
X0305956Y0179196D01*
X0305956Y0179402D02*
X0305306Y0179402D01*
X0304381Y0179440D02*
X0304381Y0177136D01*
X0303731Y0177136D01*
X0303731Y0179440D01*
X0304381Y0179440D01*
X0304381Y0177342D02*
X0303731Y0177342D01*
X0303731Y0177548D02*
X0304381Y0177548D01*
X0304381Y0177754D02*
X0303731Y0177754D01*
X0303731Y0177960D02*
X0304381Y0177960D01*
X0304381Y0178166D02*
X0303731Y0178166D01*
X0303731Y0178372D02*
X0304381Y0178372D01*
X0304381Y0178578D02*
X0303731Y0178578D01*
X0303731Y0178784D02*
X0304381Y0178784D01*
X0304381Y0178990D02*
X0303731Y0178990D01*
X0303731Y0179196D02*
X0304381Y0179196D01*
X0304381Y0179402D02*
X0303731Y0179402D01*
D32*
X0306733Y0184371D03*
D33*
X0396576Y0181339D03*
X0396576Y0192245D03*
X0396576Y0203150D03*
X0396576Y0214056D03*
X0407757Y0208603D03*
X0407757Y0197698D03*
X0407757Y0186792D03*
X0407757Y0175887D03*
X0396576Y0170434D03*
M02*
