G75*
%MOIN*%
%OFA0B0*%
%FSLAX25Y25*%
%IPPOS*%
%LPD*%
%AMOC8*
5,1,8,0,0,1.08239X$1,22.5*
%
%ADD10C,0.00000*%
%ADD11R,0.22441X0.21654*%
%ADD12R,0.06693X0.05118*%
%ADD13C,0.05315*%
%ADD14R,0.05394X0.10709*%
%ADD15C,0.05906*%
%ADD16C,0.01555*%
%ADD17R,0.08268X0.06693*%
%ADD18R,0.03150X0.03150*%
%ADD19R,0.02008X0.02362*%
%ADD20R,0.02362X0.02008*%
%ADD21R,0.05906X0.01575*%
%ADD22R,0.08800X0.04800*%
%ADD23R,0.08661X0.14173*%
%ADD24R,0.10709X0.05394*%
%ADD25R,0.02362X0.01378*%
%ADD26C,0.03562*%
%ADD27R,0.05512X0.03937*%
%ADD28R,0.03937X0.05512*%
%ADD29R,0.07165X0.04724*%
%ADD30R,0.04724X0.07165*%
%ADD31C,0.00217*%
%ADD32R,0.06063X0.06063*%
%ADD33C,0.06201*%
%ADD34C,0.03937*%
%ADD35C,0.01969*%
%ADD36C,0.01181*%
%ADD37C,0.00787*%
%ADD38C,0.02578*%
%ADD39C,0.03169*%
%ADD40C,0.00600*%
%ADD41C,0.10000*%
%ADD42C,0.07874*%
%ADD43C,0.09843*%
%ADD44C,0.02362*%
%ADD45C,0.02400*%
%ADD46C,0.05906*%
%ADD47R,0.11811X0.11811*%
D10*
X0105631Y0113505D02*
X0105631Y0270985D01*
X0105654Y0272888D01*
X0105723Y0274789D01*
X0105838Y0276689D01*
X0105999Y0278585D01*
X0106205Y0280476D01*
X0106457Y0282362D01*
X0106755Y0284241D01*
X0107098Y0286113D01*
X0107486Y0287976D01*
X0107919Y0289829D01*
X0108397Y0291671D01*
X0108919Y0293500D01*
X0109485Y0295317D01*
X0110095Y0297119D01*
X0110748Y0298907D01*
X0111444Y0300677D01*
X0112183Y0302431D01*
X0112964Y0304166D01*
X0113786Y0305882D01*
X0114650Y0307577D01*
X0115555Y0309251D01*
X0116500Y0310903D01*
X0117484Y0312531D01*
X0118507Y0314136D01*
X0119569Y0315714D01*
X0120669Y0317267D01*
X0121806Y0318793D01*
X0122979Y0320291D01*
X0124189Y0321760D01*
X0125433Y0323199D01*
X0126712Y0324608D01*
X0128025Y0325986D01*
X0129370Y0327331D01*
X0130748Y0328644D01*
X0132157Y0329923D01*
X0133596Y0331167D01*
X0135065Y0332377D01*
X0136563Y0333550D01*
X0138089Y0334687D01*
X0139642Y0335787D01*
X0141220Y0336849D01*
X0142825Y0337872D01*
X0144453Y0338856D01*
X0146105Y0339801D01*
X0147779Y0340706D01*
X0149474Y0341570D01*
X0151190Y0342392D01*
X0152925Y0343173D01*
X0154679Y0343912D01*
X0156449Y0344608D01*
X0158237Y0345261D01*
X0160039Y0345871D01*
X0161856Y0346437D01*
X0163685Y0346959D01*
X0165527Y0347437D01*
X0167380Y0347870D01*
X0169243Y0348258D01*
X0171115Y0348601D01*
X0172994Y0348899D01*
X0174880Y0349151D01*
X0176771Y0349357D01*
X0178667Y0349518D01*
X0180567Y0349633D01*
X0182468Y0349702D01*
X0184371Y0349725D01*
X0263111Y0349725D01*
X0263111Y0302481D01*
X0361536Y0302481D01*
X0361536Y0349725D01*
X0440276Y0349725D01*
X0440276Y0034765D01*
X0361536Y0034765D01*
X0361536Y0082009D01*
X0263111Y0082009D01*
X0263111Y0034765D01*
X0184371Y0034765D01*
X0182468Y0034788D01*
X0180567Y0034857D01*
X0178667Y0034972D01*
X0176771Y0035133D01*
X0174880Y0035339D01*
X0172994Y0035591D01*
X0171115Y0035889D01*
X0169243Y0036232D01*
X0167380Y0036620D01*
X0165527Y0037053D01*
X0163685Y0037531D01*
X0161856Y0038053D01*
X0160039Y0038619D01*
X0158237Y0039229D01*
X0156449Y0039882D01*
X0154679Y0040578D01*
X0152925Y0041317D01*
X0151190Y0042098D01*
X0149474Y0042920D01*
X0147779Y0043784D01*
X0146105Y0044689D01*
X0144453Y0045634D01*
X0142825Y0046618D01*
X0141220Y0047641D01*
X0139642Y0048703D01*
X0138089Y0049803D01*
X0136563Y0050940D01*
X0135065Y0052113D01*
X0133596Y0053323D01*
X0132157Y0054567D01*
X0130748Y0055846D01*
X0129370Y0057159D01*
X0128025Y0058504D01*
X0126712Y0059882D01*
X0125433Y0061291D01*
X0124189Y0062730D01*
X0122979Y0064199D01*
X0121806Y0065697D01*
X0120669Y0067223D01*
X0119569Y0068776D01*
X0118507Y0070354D01*
X0117484Y0071959D01*
X0116500Y0073587D01*
X0115555Y0075239D01*
X0114650Y0076913D01*
X0113786Y0078608D01*
X0112964Y0080324D01*
X0112183Y0082059D01*
X0111444Y0083813D01*
X0110748Y0085583D01*
X0110095Y0087371D01*
X0109485Y0089173D01*
X0108919Y0090990D01*
X0108397Y0092819D01*
X0107919Y0094661D01*
X0107486Y0096514D01*
X0107098Y0098377D01*
X0106755Y0100249D01*
X0106457Y0102128D01*
X0106205Y0104014D01*
X0105999Y0105905D01*
X0105838Y0107801D01*
X0105723Y0109701D01*
X0105654Y0111602D01*
X0105631Y0113505D01*
D11*
X0210670Y0209568D03*
D12*
X0236024Y0218564D03*
X0236024Y0200572D03*
D13*
X0214528Y0078505D03*
X0214528Y0070631D03*
D14*
X0214209Y0158780D03*
X0225398Y0158780D03*
X0225398Y0180434D03*
X0214209Y0180434D03*
X0214209Y0235552D03*
X0225398Y0235552D03*
X0225398Y0251300D03*
X0214209Y0251300D03*
X0290981Y0251300D03*
X0302170Y0251300D03*
D15*
X0274765Y0248229D03*
X0274765Y0258229D03*
X0264765Y0258229D03*
X0264765Y0248229D03*
X0264765Y0238229D03*
X0274765Y0238229D03*
X0274765Y0228229D03*
X0274765Y0218229D03*
X0264765Y0218229D03*
X0264765Y0228229D03*
X0264765Y0208229D03*
X0274765Y0208229D03*
X0274765Y0198229D03*
X0264765Y0198229D03*
X0264765Y0188229D03*
X0274765Y0188229D03*
X0274765Y0178229D03*
X0264765Y0178229D03*
X0264765Y0168229D03*
X0274765Y0168229D03*
X0274765Y0158229D03*
X0274765Y0148229D03*
X0264765Y0148229D03*
X0264765Y0158229D03*
X0264765Y0138229D03*
X0274765Y0138229D03*
X0274765Y0128229D03*
X0264765Y0128229D03*
X0184765Y0128229D03*
X0184765Y0138229D03*
X0174765Y0138229D03*
X0174765Y0128229D03*
X0174765Y0148229D03*
X0184765Y0148229D03*
X0184765Y0158229D03*
X0184765Y0168229D03*
X0174765Y0168229D03*
X0174765Y0158229D03*
X0174765Y0178229D03*
X0184765Y0178229D03*
X0184765Y0188229D03*
X0174765Y0188229D03*
X0174765Y0198229D03*
X0184765Y0198229D03*
X0184765Y0208229D03*
X0174765Y0208229D03*
X0174765Y0218229D03*
X0184765Y0218229D03*
X0184765Y0228229D03*
X0184765Y0238229D03*
X0174765Y0238229D03*
X0174765Y0228229D03*
X0174765Y0248229D03*
X0184765Y0248229D03*
X0184765Y0258229D03*
X0174765Y0258229D03*
X0129882Y0226376D03*
X0121221Y0221376D03*
X0131221Y0204056D03*
X0139882Y0209056D03*
X0131026Y0180513D03*
X0139686Y0175513D03*
X0129686Y0158192D03*
X0121026Y0163192D03*
X0191930Y0050670D03*
X0191930Y0040670D03*
X0211930Y0040670D03*
X0211930Y0050670D03*
X0401182Y0046851D03*
X0411182Y0046851D03*
X0411182Y0056851D03*
X0401182Y0056851D03*
X0401182Y0066851D03*
X0411182Y0066851D03*
X0411182Y0076851D03*
X0401182Y0076851D03*
X0401182Y0086851D03*
X0411182Y0086851D03*
X0410906Y0297914D03*
X0400906Y0297914D03*
X0400906Y0307914D03*
X0410906Y0307914D03*
X0410906Y0317914D03*
X0400906Y0317914D03*
X0400906Y0327914D03*
X0410906Y0327914D03*
X0410906Y0337914D03*
X0400906Y0337914D03*
X0211930Y0333820D03*
X0211930Y0343820D03*
X0191930Y0343820D03*
X0191930Y0333820D03*
D16*
X0196152Y0284735D02*
X0206842Y0284735D01*
X0206842Y0280069D01*
X0196152Y0280069D01*
X0196152Y0284735D01*
X0196152Y0281546D02*
X0206842Y0281546D01*
X0206842Y0283023D02*
X0196152Y0283023D01*
X0196152Y0284500D02*
X0206842Y0284500D01*
X0215837Y0284735D02*
X0226527Y0284735D01*
X0226527Y0280069D01*
X0215837Y0280069D01*
X0215837Y0284735D01*
X0215837Y0281546D02*
X0226527Y0281546D01*
X0226527Y0283023D02*
X0215837Y0283023D01*
X0215837Y0284500D02*
X0226527Y0284500D01*
X0230897Y0109539D02*
X0220207Y0109539D01*
X0230897Y0109539D02*
X0230897Y0104873D01*
X0220207Y0104873D01*
X0220207Y0109539D01*
X0220207Y0106350D02*
X0230897Y0106350D01*
X0230897Y0107827D02*
X0220207Y0107827D01*
X0220207Y0109304D02*
X0230897Y0109304D01*
X0247924Y0099361D02*
X0258614Y0099361D01*
X0247924Y0099361D02*
X0247924Y0104027D01*
X0258614Y0104027D01*
X0258614Y0099361D01*
X0258614Y0100838D02*
X0247924Y0100838D01*
X0247924Y0102315D02*
X0258614Y0102315D01*
X0258614Y0103792D02*
X0247924Y0103792D01*
X0267609Y0099361D02*
X0278299Y0099361D01*
X0267609Y0099361D02*
X0267609Y0104027D01*
X0278299Y0104027D01*
X0278299Y0099361D01*
X0278299Y0100838D02*
X0267609Y0100838D01*
X0267609Y0102315D02*
X0278299Y0102315D01*
X0278299Y0103792D02*
X0267609Y0103792D01*
X0211212Y0109539D02*
X0200522Y0109539D01*
X0211212Y0109539D02*
X0211212Y0104873D01*
X0200522Y0104873D01*
X0200522Y0109539D01*
X0200522Y0106350D02*
X0211212Y0106350D01*
X0211212Y0107827D02*
X0200522Y0107827D01*
X0200522Y0109304D02*
X0211212Y0109304D01*
D17*
X0241024Y0285276D03*
X0241024Y0299056D03*
X0255985Y0285276D03*
D18*
X0249725Y0272954D03*
X0243820Y0272954D03*
X0182402Y0280434D03*
X0182402Y0286339D03*
X0176891Y0290670D03*
X0170985Y0290670D03*
X0165473Y0286339D03*
X0165473Y0280434D03*
X0170828Y0275080D03*
X0176733Y0275080D03*
X0159174Y0274922D03*
X0153269Y0274922D03*
X0146969Y0280434D03*
X0146969Y0286339D03*
X0153269Y0290670D03*
X0159174Y0290670D03*
X0172560Y0098150D03*
X0172560Y0092245D03*
X0160946Y0094489D03*
X0155040Y0094489D03*
X0148269Y0088859D03*
X0148269Y0082954D03*
X0155119Y0077402D03*
X0161024Y0077402D03*
X0172560Y0078465D03*
X0172560Y0072560D03*
D19*
X0182619Y0072166D03*
X0186123Y0072166D03*
X0186123Y0093820D03*
X0182619Y0093820D03*
X0154981Y0104961D03*
X0151477Y0104961D03*
X0136871Y0104961D03*
X0133367Y0104961D03*
X0135257Y0084056D03*
X0138761Y0084056D03*
X0208209Y0141064D03*
X0211713Y0141064D03*
X0220020Y0141064D03*
X0223524Y0141064D03*
X0235769Y0091851D03*
X0239272Y0091851D03*
X0254627Y0058269D03*
X0258131Y0058269D03*
X0236635Y0051812D03*
X0233131Y0051812D03*
X0233800Y0040670D03*
X0237304Y0040670D03*
X0159548Y0211261D03*
X0156044Y0211261D03*
X0152658Y0259174D03*
X0149154Y0259174D03*
X0144509Y0272284D03*
X0141005Y0272284D03*
X0221989Y0330040D03*
X0225493Y0330040D03*
X0225493Y0341851D03*
X0221989Y0341851D03*
X0261359Y0274922D03*
X0264863Y0274922D03*
X0273170Y0269017D03*
X0276674Y0269017D03*
D20*
X0243426Y0262894D03*
X0243426Y0259391D03*
X0194213Y0298761D03*
X0194213Y0302265D03*
X0184371Y0302265D03*
X0184371Y0298761D03*
X0174528Y0298761D03*
X0174528Y0302265D03*
X0164686Y0302265D03*
X0164686Y0298761D03*
X0154843Y0298761D03*
X0154843Y0302265D03*
X0145001Y0302265D03*
X0145001Y0298761D03*
X0150906Y0227461D03*
X0150906Y0223957D03*
X0158780Y0190060D03*
X0158780Y0186556D03*
X0158780Y0178249D03*
X0158780Y0174745D03*
X0158780Y0166438D03*
X0158780Y0162934D03*
X0158780Y0154627D03*
X0158780Y0151123D03*
X0158780Y0142816D03*
X0158780Y0139312D03*
X0158780Y0131005D03*
X0158780Y0127501D03*
X0135158Y0133406D03*
X0135158Y0136910D03*
X0139095Y0149154D03*
X0139095Y0152658D03*
X0160670Y0068052D03*
X0160670Y0064548D03*
X0292639Y0202304D03*
X0292639Y0205808D03*
X0257875Y0336438D03*
X0257875Y0339942D03*
D21*
X0338603Y0177304D03*
X0338603Y0174745D03*
X0338603Y0172186D03*
X0338603Y0169627D03*
X0338603Y0167068D03*
X0338603Y0164509D03*
X0338603Y0161950D03*
X0338603Y0159391D03*
X0338603Y0156831D03*
X0338603Y0154272D03*
X0338603Y0151713D03*
X0338603Y0149154D03*
X0367146Y0149154D03*
X0367146Y0151713D03*
X0367146Y0154272D03*
X0367146Y0156831D03*
X0367146Y0159391D03*
X0367146Y0161950D03*
X0367146Y0164509D03*
X0367146Y0167068D03*
X0367146Y0169627D03*
X0367146Y0172186D03*
X0367146Y0174745D03*
X0367146Y0177304D03*
D22*
X0379209Y0232554D03*
X0379209Y0241654D03*
X0379209Y0250754D03*
D23*
X0354808Y0241654D03*
D24*
X0312324Y0231304D03*
X0312324Y0220115D03*
D25*
X0314292Y0206123D03*
X0314292Y0201989D03*
X0304450Y0201989D03*
X0304450Y0206123D03*
X0294607Y0223643D03*
X0294607Y0227776D03*
X0289804Y0187580D03*
X0289804Y0183446D03*
D26*
X0404843Y0115473D03*
X0414686Y0115473D03*
X0424528Y0115473D03*
D27*
X0240694Y0078072D03*
X0230410Y0081812D03*
X0230410Y0074331D03*
X0246442Y0334450D03*
X0246442Y0341930D03*
X0236158Y0338190D03*
D28*
X0277520Y0288568D03*
X0273780Y0278284D03*
X0281261Y0278284D03*
X0154646Y0248568D03*
X0147166Y0248568D03*
X0150906Y0238284D03*
X0135788Y0124709D03*
X0132048Y0114426D03*
X0139528Y0114426D03*
X0251300Y0049906D03*
X0258780Y0049906D03*
X0255040Y0039623D03*
D29*
X0298544Y0129410D03*
X0298544Y0140906D03*
X0314292Y0140906D03*
X0314292Y0129410D03*
D30*
X0304292Y0158780D03*
X0292796Y0158780D03*
D31*
X0302806Y0177136D02*
X0302806Y0179440D01*
X0302806Y0177136D02*
X0302156Y0177136D01*
X0302156Y0179440D01*
X0302806Y0179440D01*
X0302806Y0177342D02*
X0302156Y0177342D01*
X0302156Y0177548D02*
X0302806Y0177548D01*
X0302806Y0177754D02*
X0302156Y0177754D01*
X0302156Y0177960D02*
X0302806Y0177960D01*
X0302806Y0178166D02*
X0302156Y0178166D01*
X0302156Y0178372D02*
X0302806Y0178372D01*
X0302806Y0178578D02*
X0302156Y0178578D01*
X0302156Y0178784D02*
X0302806Y0178784D01*
X0302806Y0178990D02*
X0302156Y0178990D01*
X0302156Y0179196D02*
X0302806Y0179196D01*
X0302806Y0179402D02*
X0302156Y0179402D01*
X0301487Y0180109D02*
X0299183Y0180109D01*
X0299183Y0180759D01*
X0301487Y0180759D01*
X0301487Y0180109D01*
X0301487Y0180315D02*
X0299183Y0180315D01*
X0299183Y0180521D02*
X0301487Y0180521D01*
X0301487Y0180727D02*
X0299183Y0180727D01*
X0299183Y0181684D02*
X0301487Y0181684D01*
X0299183Y0181684D02*
X0299183Y0182334D01*
X0301487Y0182334D01*
X0301487Y0181684D01*
X0301487Y0181890D02*
X0299183Y0181890D01*
X0299183Y0182096D02*
X0301487Y0182096D01*
X0301487Y0182302D02*
X0299183Y0182302D01*
X0299183Y0183258D02*
X0301487Y0183258D01*
X0299183Y0183258D02*
X0299183Y0183908D01*
X0301487Y0183908D01*
X0301487Y0183258D01*
X0301487Y0183464D02*
X0299183Y0183464D01*
X0299183Y0183670D02*
X0301487Y0183670D01*
X0301487Y0183876D02*
X0299183Y0183876D01*
X0299183Y0184833D02*
X0301487Y0184833D01*
X0299183Y0184833D02*
X0299183Y0185483D01*
X0301487Y0185483D01*
X0301487Y0184833D01*
X0301487Y0185039D02*
X0299183Y0185039D01*
X0299183Y0185245D02*
X0301487Y0185245D01*
X0301487Y0185451D02*
X0299183Y0185451D01*
X0299183Y0186408D02*
X0301487Y0186408D01*
X0299183Y0186408D02*
X0299183Y0187058D01*
X0301487Y0187058D01*
X0301487Y0186408D01*
X0301487Y0186614D02*
X0299183Y0186614D01*
X0299183Y0186820D02*
X0301487Y0186820D01*
X0301487Y0187026D02*
X0299183Y0187026D01*
X0299183Y0187983D02*
X0301487Y0187983D01*
X0299183Y0187983D02*
X0299183Y0188633D01*
X0301487Y0188633D01*
X0301487Y0187983D01*
X0301487Y0188189D02*
X0299183Y0188189D01*
X0299183Y0188395D02*
X0301487Y0188395D01*
X0301487Y0188601D02*
X0299183Y0188601D01*
X0302156Y0189302D02*
X0302156Y0191606D01*
X0302806Y0191606D01*
X0302806Y0189302D01*
X0302156Y0189302D01*
X0302156Y0189508D02*
X0302806Y0189508D01*
X0302806Y0189714D02*
X0302156Y0189714D01*
X0302156Y0189920D02*
X0302806Y0189920D01*
X0302806Y0190126D02*
X0302156Y0190126D01*
X0302156Y0190332D02*
X0302806Y0190332D01*
X0302806Y0190538D02*
X0302156Y0190538D01*
X0302156Y0190744D02*
X0302806Y0190744D01*
X0302806Y0190950D02*
X0302156Y0190950D01*
X0302156Y0191156D02*
X0302806Y0191156D01*
X0302806Y0191362D02*
X0302156Y0191362D01*
X0302156Y0191568D02*
X0302806Y0191568D01*
X0303731Y0191606D02*
X0303731Y0189302D01*
X0303731Y0191606D02*
X0304381Y0191606D01*
X0304381Y0189302D01*
X0303731Y0189302D01*
X0303731Y0189508D02*
X0304381Y0189508D01*
X0304381Y0189714D02*
X0303731Y0189714D01*
X0303731Y0189920D02*
X0304381Y0189920D01*
X0304381Y0190126D02*
X0303731Y0190126D01*
X0303731Y0190332D02*
X0304381Y0190332D01*
X0304381Y0190538D02*
X0303731Y0190538D01*
X0303731Y0190744D02*
X0304381Y0190744D01*
X0304381Y0190950D02*
X0303731Y0190950D01*
X0303731Y0191156D02*
X0304381Y0191156D01*
X0304381Y0191362D02*
X0303731Y0191362D01*
X0303731Y0191568D02*
X0304381Y0191568D01*
X0305306Y0191606D02*
X0305306Y0189302D01*
X0305306Y0191606D02*
X0305956Y0191606D01*
X0305956Y0189302D01*
X0305306Y0189302D01*
X0305306Y0189508D02*
X0305956Y0189508D01*
X0305956Y0189714D02*
X0305306Y0189714D01*
X0305306Y0189920D02*
X0305956Y0189920D01*
X0305956Y0190126D02*
X0305306Y0190126D01*
X0305306Y0190332D02*
X0305956Y0190332D01*
X0305956Y0190538D02*
X0305306Y0190538D01*
X0305306Y0190744D02*
X0305956Y0190744D01*
X0305956Y0190950D02*
X0305306Y0190950D01*
X0305306Y0191156D02*
X0305956Y0191156D01*
X0305956Y0191362D02*
X0305306Y0191362D01*
X0305306Y0191568D02*
X0305956Y0191568D01*
X0306881Y0191606D02*
X0306881Y0189302D01*
X0306881Y0191606D02*
X0307531Y0191606D01*
X0307531Y0189302D01*
X0306881Y0189302D01*
X0306881Y0189508D02*
X0307531Y0189508D01*
X0307531Y0189714D02*
X0306881Y0189714D01*
X0306881Y0189920D02*
X0307531Y0189920D01*
X0307531Y0190126D02*
X0306881Y0190126D01*
X0306881Y0190332D02*
X0307531Y0190332D01*
X0307531Y0190538D02*
X0306881Y0190538D01*
X0306881Y0190744D02*
X0307531Y0190744D01*
X0307531Y0190950D02*
X0306881Y0190950D01*
X0306881Y0191156D02*
X0307531Y0191156D01*
X0307531Y0191362D02*
X0306881Y0191362D01*
X0306881Y0191568D02*
X0307531Y0191568D01*
X0308455Y0191606D02*
X0308455Y0189302D01*
X0308455Y0191606D02*
X0309105Y0191606D01*
X0309105Y0189302D01*
X0308455Y0189302D01*
X0308455Y0189508D02*
X0309105Y0189508D01*
X0309105Y0189714D02*
X0308455Y0189714D01*
X0308455Y0189920D02*
X0309105Y0189920D01*
X0309105Y0190126D02*
X0308455Y0190126D01*
X0308455Y0190332D02*
X0309105Y0190332D01*
X0309105Y0190538D02*
X0308455Y0190538D01*
X0308455Y0190744D02*
X0309105Y0190744D01*
X0309105Y0190950D02*
X0308455Y0190950D01*
X0308455Y0191156D02*
X0309105Y0191156D01*
X0309105Y0191362D02*
X0308455Y0191362D01*
X0308455Y0191568D02*
X0309105Y0191568D01*
X0310030Y0191606D02*
X0310030Y0189302D01*
X0310030Y0191606D02*
X0310680Y0191606D01*
X0310680Y0189302D01*
X0310030Y0189302D01*
X0310030Y0189508D02*
X0310680Y0189508D01*
X0310680Y0189714D02*
X0310030Y0189714D01*
X0310030Y0189920D02*
X0310680Y0189920D01*
X0310680Y0190126D02*
X0310030Y0190126D01*
X0310030Y0190332D02*
X0310680Y0190332D01*
X0310680Y0190538D02*
X0310030Y0190538D01*
X0310030Y0190744D02*
X0310680Y0190744D01*
X0310680Y0190950D02*
X0310030Y0190950D01*
X0310030Y0191156D02*
X0310680Y0191156D01*
X0310680Y0191362D02*
X0310030Y0191362D01*
X0310030Y0191568D02*
X0310680Y0191568D01*
X0311349Y0188633D02*
X0313653Y0188633D01*
X0313653Y0187983D01*
X0311349Y0187983D01*
X0311349Y0188633D01*
X0311349Y0188189D02*
X0313653Y0188189D01*
X0313653Y0188395D02*
X0311349Y0188395D01*
X0311349Y0188601D02*
X0313653Y0188601D01*
X0313653Y0187058D02*
X0311349Y0187058D01*
X0313653Y0187058D02*
X0313653Y0186408D01*
X0311349Y0186408D01*
X0311349Y0187058D01*
X0311349Y0186614D02*
X0313653Y0186614D01*
X0313653Y0186820D02*
X0311349Y0186820D01*
X0311349Y0187026D02*
X0313653Y0187026D01*
X0313653Y0185483D02*
X0311349Y0185483D01*
X0313653Y0185483D02*
X0313653Y0184833D01*
X0311349Y0184833D01*
X0311349Y0185483D01*
X0311349Y0185039D02*
X0313653Y0185039D01*
X0313653Y0185245D02*
X0311349Y0185245D01*
X0311349Y0185451D02*
X0313653Y0185451D01*
X0313653Y0183908D02*
X0311349Y0183908D01*
X0313653Y0183908D02*
X0313653Y0183258D01*
X0311349Y0183258D01*
X0311349Y0183908D01*
X0311349Y0183464D02*
X0313653Y0183464D01*
X0313653Y0183670D02*
X0311349Y0183670D01*
X0311349Y0183876D02*
X0313653Y0183876D01*
X0313653Y0182334D02*
X0311349Y0182334D01*
X0313653Y0182334D02*
X0313653Y0181684D01*
X0311349Y0181684D01*
X0311349Y0182334D01*
X0311349Y0181890D02*
X0313653Y0181890D01*
X0313653Y0182096D02*
X0311349Y0182096D01*
X0311349Y0182302D02*
X0313653Y0182302D01*
X0313653Y0180759D02*
X0311349Y0180759D01*
X0313653Y0180759D02*
X0313653Y0180109D01*
X0311349Y0180109D01*
X0311349Y0180759D01*
X0311349Y0180315D02*
X0313653Y0180315D01*
X0313653Y0180521D02*
X0311349Y0180521D01*
X0311349Y0180727D02*
X0313653Y0180727D01*
X0310680Y0179440D02*
X0310680Y0177136D01*
X0310030Y0177136D01*
X0310030Y0179440D01*
X0310680Y0179440D01*
X0310680Y0177342D02*
X0310030Y0177342D01*
X0310030Y0177548D02*
X0310680Y0177548D01*
X0310680Y0177754D02*
X0310030Y0177754D01*
X0310030Y0177960D02*
X0310680Y0177960D01*
X0310680Y0178166D02*
X0310030Y0178166D01*
X0310030Y0178372D02*
X0310680Y0178372D01*
X0310680Y0178578D02*
X0310030Y0178578D01*
X0310030Y0178784D02*
X0310680Y0178784D01*
X0310680Y0178990D02*
X0310030Y0178990D01*
X0310030Y0179196D02*
X0310680Y0179196D01*
X0310680Y0179402D02*
X0310030Y0179402D01*
X0309105Y0179440D02*
X0309105Y0177136D01*
X0308455Y0177136D01*
X0308455Y0179440D01*
X0309105Y0179440D01*
X0309105Y0177342D02*
X0308455Y0177342D01*
X0308455Y0177548D02*
X0309105Y0177548D01*
X0309105Y0177754D02*
X0308455Y0177754D01*
X0308455Y0177960D02*
X0309105Y0177960D01*
X0309105Y0178166D02*
X0308455Y0178166D01*
X0308455Y0178372D02*
X0309105Y0178372D01*
X0309105Y0178578D02*
X0308455Y0178578D01*
X0308455Y0178784D02*
X0309105Y0178784D01*
X0309105Y0178990D02*
X0308455Y0178990D01*
X0308455Y0179196D02*
X0309105Y0179196D01*
X0309105Y0179402D02*
X0308455Y0179402D01*
X0307531Y0179440D02*
X0307531Y0177136D01*
X0306881Y0177136D01*
X0306881Y0179440D01*
X0307531Y0179440D01*
X0307531Y0177342D02*
X0306881Y0177342D01*
X0306881Y0177548D02*
X0307531Y0177548D01*
X0307531Y0177754D02*
X0306881Y0177754D01*
X0306881Y0177960D02*
X0307531Y0177960D01*
X0307531Y0178166D02*
X0306881Y0178166D01*
X0306881Y0178372D02*
X0307531Y0178372D01*
X0307531Y0178578D02*
X0306881Y0178578D01*
X0306881Y0178784D02*
X0307531Y0178784D01*
X0307531Y0178990D02*
X0306881Y0178990D01*
X0306881Y0179196D02*
X0307531Y0179196D01*
X0307531Y0179402D02*
X0306881Y0179402D01*
X0305956Y0179440D02*
X0305956Y0177136D01*
X0305306Y0177136D01*
X0305306Y0179440D01*
X0305956Y0179440D01*
X0305956Y0177342D02*
X0305306Y0177342D01*
X0305306Y0177548D02*
X0305956Y0177548D01*
X0305956Y0177754D02*
X0305306Y0177754D01*
X0305306Y0177960D02*
X0305956Y0177960D01*
X0305956Y0178166D02*
X0305306Y0178166D01*
X0305306Y0178372D02*
X0305956Y0178372D01*
X0305956Y0178578D02*
X0305306Y0178578D01*
X0305306Y0178784D02*
X0305956Y0178784D01*
X0305956Y0178990D02*
X0305306Y0178990D01*
X0305306Y0179196D02*
X0305956Y0179196D01*
X0305956Y0179402D02*
X0305306Y0179402D01*
X0304381Y0179440D02*
X0304381Y0177136D01*
X0303731Y0177136D01*
X0303731Y0179440D01*
X0304381Y0179440D01*
X0304381Y0177342D02*
X0303731Y0177342D01*
X0303731Y0177548D02*
X0304381Y0177548D01*
X0304381Y0177754D02*
X0303731Y0177754D01*
X0303731Y0177960D02*
X0304381Y0177960D01*
X0304381Y0178166D02*
X0303731Y0178166D01*
X0303731Y0178372D02*
X0304381Y0178372D01*
X0304381Y0178578D02*
X0303731Y0178578D01*
X0303731Y0178784D02*
X0304381Y0178784D01*
X0304381Y0178990D02*
X0303731Y0178990D01*
X0303731Y0179196D02*
X0304381Y0179196D01*
X0304381Y0179402D02*
X0303731Y0179402D01*
D32*
X0306733Y0184371D03*
D33*
X0396576Y0181339D03*
X0396576Y0192245D03*
X0396576Y0203150D03*
X0396576Y0214056D03*
X0407757Y0208603D03*
X0407757Y0197698D03*
X0407757Y0186792D03*
X0407757Y0175887D03*
X0396576Y0170434D03*
D34*
X0376852Y0171960D02*
X0376852Y0203408D01*
X0418396Y0244952D01*
X0418396Y0320201D01*
X0410906Y0327691D01*
X0410906Y0327914D01*
X0400906Y0337691D02*
X0393417Y0330201D01*
X0393417Y0228357D01*
X0367146Y0202087D01*
X0367146Y0177304D01*
X0367146Y0175542D01*
X0367146Y0170591D02*
X0361536Y0170591D01*
X0357599Y0166654D01*
X0357599Y0150906D01*
X0358967Y0150906D01*
X0363691Y0155631D01*
X0368347Y0155631D01*
X0367146Y0150906D02*
X0367146Y0149154D01*
X0367146Y0150906D02*
X0367146Y0137127D01*
X0399213Y0105060D01*
X0399213Y0088820D01*
X0401182Y0086851D01*
X0411182Y0077074D02*
X0419853Y0085745D01*
X0419853Y0118426D01*
X0377698Y0160581D01*
X0367146Y0160581D01*
X0367146Y0166054D02*
X0370947Y0166054D01*
X0376852Y0171960D01*
X0368741Y0170591D02*
X0367146Y0170591D01*
X0357599Y0150906D02*
X0357599Y0148938D01*
X0411182Y0077074D02*
X0411182Y0076851D01*
X0253269Y0101694D02*
X0231064Y0101694D01*
X0225552Y0107206D01*
X0225670Y0107324D01*
X0225670Y0141064D01*
X0225670Y0158741D01*
X0225709Y0158780D02*
X0225709Y0180123D01*
X0225398Y0180434D01*
X0225709Y0180745D01*
X0225709Y0190257D01*
X0236024Y0200572D01*
X0236024Y0218564D02*
X0225398Y0229190D01*
X0225398Y0235552D01*
X0225398Y0251300D01*
X0225398Y0273265D01*
X0219804Y0278859D01*
X0214209Y0269690D02*
X0214209Y0251300D01*
X0214209Y0235552D01*
X0214209Y0213107D01*
X0210670Y0209568D01*
X0214209Y0206028D01*
X0214209Y0180434D01*
X0214209Y0158780D01*
X0205867Y0150438D01*
X0205867Y0141064D01*
X0205867Y0107206D01*
X0205867Y0070355D01*
X0209961Y0066261D01*
X0210158Y0066261D01*
X0214528Y0070631D01*
X0214209Y0269690D02*
X0201497Y0282402D01*
X0400906Y0337691D02*
X0400906Y0337914D01*
D35*
X0281261Y0278284D02*
X0281261Y0271418D01*
X0276891Y0267048D01*
X0276891Y0268800D01*
X0276674Y0269017D01*
X0276891Y0267048D02*
X0274922Y0265080D01*
X0263111Y0265080D01*
X0255985Y0285276D02*
X0259922Y0289213D01*
X0276875Y0289213D01*
X0277520Y0288568D01*
X0241024Y0285276D02*
X0224056Y0285276D01*
X0221182Y0282402D01*
X0249331Y0227678D02*
X0240217Y0218564D01*
X0236024Y0218564D01*
D36*
X0121026Y0163192D02*
X0121026Y0098287D01*
X0135257Y0084056D01*
X0135257Y0072068D01*
X0143032Y0064292D01*
X0160414Y0064292D01*
X0160670Y0064548D01*
X0174548Y0050670D01*
X0180434Y0050670D01*
X0186123Y0056359D01*
X0186123Y0072166D01*
X0186123Y0093820D01*
X0190276Y0097757D02*
X0190276Y0072560D01*
X0207402Y0055434D01*
X0211930Y0050670D02*
X0191930Y0050670D01*
X0180434Y0050670D01*
X0191930Y0040670D02*
X0206070Y0040670D01*
X0210214Y0044813D01*
X0223741Y0044813D01*
X0226132Y0044813D01*
X0233131Y0051812D01*
X0172560Y0078465D02*
X0172560Y0087412D01*
X0169794Y0090177D01*
X0169794Y0094313D01*
X0170867Y0095385D01*
X0174628Y0095385D01*
X0190689Y0111446D01*
X0190689Y0180683D01*
X0184765Y0186608D01*
X0184765Y0188229D01*
X0186481Y0182372D02*
X0180621Y0182372D01*
X0174765Y0188229D01*
X0167143Y0194086D02*
X0186467Y0194086D01*
X0209961Y0170591D01*
X0188908Y0166513D02*
X0188908Y0179945D01*
X0186481Y0182372D01*
X0188908Y0166513D02*
X0186481Y0164086D01*
X0184762Y0164086D01*
X0180295Y0159619D01*
X0180295Y0105886D01*
X0172560Y0098150D01*
X0152875Y0110749D02*
X0143206Y0110749D01*
X0139528Y0114426D01*
X0139772Y0114182D01*
X0139772Y0135158D01*
X0139772Y0148477D01*
X0139772Y0149467D01*
X0144723Y0154417D01*
X0144723Y0176367D01*
X0151816Y0183461D01*
X0158416Y0190060D01*
X0158780Y0190060D01*
X0158780Y0196182D01*
X0166654Y0204056D01*
X0200119Y0204056D01*
X0221511Y0193647D02*
X0234153Y0206290D01*
X0237895Y0206290D01*
X0240561Y0203624D01*
X0240561Y0174604D01*
X0262793Y0152372D01*
X0266481Y0152372D01*
X0270624Y0148229D01*
X0274765Y0148229D01*
X0274762Y0152372D02*
X0268908Y0158226D01*
X0268908Y0159945D01*
X0266481Y0162372D01*
X0256888Y0162372D01*
X0247363Y0171897D01*
X0247363Y0211930D01*
X0241457Y0225709D02*
X0231615Y0235552D01*
X0231615Y0278859D01*
X0221182Y0282402D02*
X0206517Y0297068D01*
X0206517Y0311831D01*
X0187787Y0330561D01*
X0187787Y0335536D01*
X0191930Y0339679D01*
X0196070Y0343820D01*
X0211930Y0343820D01*
X0214010Y0330040D02*
X0221989Y0330040D01*
X0214010Y0330040D02*
X0213646Y0329676D01*
X0204420Y0329676D01*
X0211930Y0322166D01*
X0211930Y0301069D01*
X0214877Y0298122D01*
X0224163Y0298122D01*
X0227678Y0294607D01*
X0231418Y0292639D02*
X0267333Y0292639D01*
X0267342Y0292648D01*
X0282502Y0292648D01*
X0284774Y0290376D01*
X0284774Y0269007D01*
X0302481Y0251300D01*
X0320198Y0251300D01*
X0322166Y0253269D01*
X0386320Y0317423D01*
X0386320Y0333125D01*
X0397222Y0344026D01*
X0404591Y0344026D01*
X0410703Y0337914D01*
X0410906Y0337914D01*
X0376694Y0253269D02*
X0322166Y0253269D01*
X0330040Y0241654D02*
X0300627Y0241654D01*
X0291810Y0250471D01*
X0290981Y0251300D01*
X0302170Y0251300D02*
X0302481Y0251300D01*
X0298135Y0231304D02*
X0294607Y0227776D01*
X0294607Y0223643D02*
X0298135Y0220115D01*
X0312324Y0220115D01*
X0333977Y0220115D01*
X0357669Y0220115D01*
X0379209Y0241654D01*
X0374316Y0245245D02*
X0384102Y0245245D01*
X0384799Y0244547D01*
X0384799Y0238761D01*
X0379209Y0233171D01*
X0379209Y0232554D01*
X0370725Y0241654D02*
X0374316Y0245245D01*
X0370725Y0241654D02*
X0354808Y0241654D01*
X0330040Y0241654D01*
X0312324Y0231304D02*
X0298135Y0231304D01*
X0241457Y0170591D02*
X0231615Y0170591D01*
X0241457Y0170591D02*
X0255897Y0156152D01*
X0255897Y0140404D01*
X0262215Y0134086D01*
X0266481Y0134086D01*
X0270624Y0138229D01*
X0274765Y0138229D01*
X0276481Y0144086D02*
X0270621Y0144086D01*
X0264765Y0138229D01*
X0264765Y0128229D02*
X0263820Y0127284D01*
X0231615Y0127284D01*
X0220020Y0141064D02*
X0215867Y0141064D01*
X0221511Y0146708D01*
X0221511Y0193647D01*
X0274762Y0152372D02*
X0276481Y0152372D01*
X0278908Y0149945D01*
X0278908Y0146513D01*
X0276481Y0144086D01*
X0292796Y0158780D02*
X0298524Y0164509D01*
X0312324Y0164509D01*
X0338603Y0164509D01*
X0379209Y0250754D02*
X0376694Y0253269D01*
X0231418Y0292639D02*
X0221182Y0282402D01*
X0206517Y0297068D02*
X0201320Y0302265D01*
X0194213Y0302265D01*
X0184371Y0302265D01*
X0174528Y0302265D01*
X0164686Y0302265D01*
X0154843Y0302265D01*
X0145001Y0302265D01*
X0142816Y0302265D01*
X0133819Y0293267D01*
X0133819Y0278859D01*
X0133819Y0230313D01*
X0129882Y0226376D01*
X0127913Y0226376D01*
X0125125Y0229164D01*
X0118811Y0229164D01*
X0113433Y0223787D01*
X0113433Y0198105D01*
X0131026Y0180513D01*
X0131026Y0189698D01*
X0139882Y0198554D01*
X0139882Y0209056D01*
X0143965Y0211261D02*
X0141723Y0213502D01*
X0129095Y0213502D01*
X0121221Y0221376D01*
X0143965Y0211261D02*
X0154843Y0200382D01*
X0154843Y0200119D01*
X0158780Y0196182D02*
X0158780Y0210493D01*
X0159548Y0211261D01*
X0159548Y0236186D01*
X0147166Y0248568D01*
X0147166Y0257186D01*
X0149154Y0259174D01*
X0143965Y0211261D02*
X0156044Y0211261D01*
X0164686Y0196182D02*
X0165047Y0196182D01*
X0167143Y0194086D01*
X0131026Y0180513D02*
X0131026Y0173192D01*
X0121026Y0163192D01*
X0129686Y0158192D02*
X0134017Y0158192D01*
X0139095Y0153113D01*
X0139095Y0152658D01*
X0139095Y0149154D02*
X0139772Y0148477D01*
X0211713Y0141064D02*
X0215867Y0141064D01*
X0204420Y0329676D02*
X0196073Y0329676D01*
X0191930Y0333820D01*
X0191930Y0339679D02*
X0191930Y0343820D01*
D37*
X0211930Y0333820D02*
X0219961Y0341851D01*
X0221989Y0341851D01*
X0225493Y0341851D02*
X0232497Y0341851D01*
X0236158Y0338190D01*
X0234552Y0330040D02*
X0233583Y0330040D01*
X0225709Y0322166D01*
X0225709Y0314292D01*
X0217835Y0306418D01*
X0215867Y0300513D02*
X0246442Y0331087D01*
X0246442Y0334450D01*
X0255887Y0334450D01*
X0257875Y0336438D01*
X0257875Y0339942D02*
X0255887Y0341930D01*
X0246442Y0341930D01*
X0234552Y0330040D01*
X0233583Y0330040D02*
X0225493Y0330040D01*
X0194213Y0298761D02*
X0194213Y0293595D01*
X0184389Y0283771D01*
X0179440Y0283771D01*
X0176497Y0280828D01*
X0176497Y0275316D01*
X0176733Y0275080D01*
X0170828Y0275080D02*
X0170828Y0259873D01*
X0170818Y0259864D01*
X0170818Y0242176D01*
X0174765Y0238229D01*
X0178711Y0236594D02*
X0174292Y0232176D01*
X0173130Y0232176D01*
X0170818Y0229864D01*
X0170818Y0226594D01*
X0173130Y0224283D01*
X0176399Y0224283D01*
X0180346Y0228229D01*
X0184765Y0228229D01*
X0180098Y0222895D02*
X0172555Y0222895D01*
X0163326Y0232124D01*
X0163326Y0263111D01*
X0166654Y0267442D02*
X0166654Y0251300D01*
X0158780Y0244434D02*
X0158780Y0243426D01*
X0158780Y0244434D02*
X0154646Y0248568D01*
X0154646Y0257186D01*
X0152658Y0259174D01*
X0161132Y0268409D02*
X0161132Y0231861D01*
X0174765Y0218229D01*
X0180098Y0222895D02*
X0184765Y0218229D01*
X0186399Y0214283D02*
X0180818Y0214283D01*
X0174765Y0208229D01*
X0186399Y0214283D02*
X0190276Y0218160D01*
X0190276Y0282796D01*
X0184371Y0288308D02*
X0182402Y0286339D01*
X0184371Y0288308D02*
X0184371Y0298761D01*
X0174528Y0298761D02*
X0170985Y0295217D01*
X0170985Y0290670D01*
X0176891Y0290670D02*
X0176891Y0283183D01*
X0174165Y0280457D01*
X0174165Y0264410D01*
X0178711Y0259864D01*
X0178711Y0236594D01*
X0180818Y0234283D02*
X0180818Y0259864D01*
X0182402Y0261448D01*
X0182402Y0280434D01*
X0167442Y0278465D02*
X0167442Y0270985D01*
X0166654Y0267442D02*
X0159174Y0274922D01*
X0156606Y0276908D02*
X0156606Y0272936D01*
X0161132Y0268409D01*
X0156606Y0276908D02*
X0159174Y0279477D01*
X0159174Y0290670D01*
X0164686Y0287127D02*
X0165473Y0286339D01*
X0164686Y0287127D02*
X0164686Y0298761D01*
X0154843Y0298761D02*
X0153269Y0297186D01*
X0153269Y0290670D01*
X0146969Y0286339D02*
X0146969Y0296792D01*
X0145001Y0298761D01*
X0146969Y0280434D02*
X0148938Y0278465D01*
X0148938Y0276891D01*
X0153269Y0274922D02*
X0150631Y0272284D01*
X0144509Y0272284D01*
X0141005Y0272284D02*
X0140393Y0272284D01*
X0133819Y0278859D01*
X0165473Y0280434D02*
X0167442Y0278465D01*
X0201497Y0282402D02*
X0204056Y0284961D01*
X0204056Y0290670D01*
X0219804Y0281024D02*
X0219804Y0278859D01*
X0219804Y0281024D02*
X0221182Y0282402D01*
X0255237Y0274411D02*
X0255748Y0274922D01*
X0261359Y0274922D01*
X0264863Y0274922D02*
X0268225Y0278284D01*
X0273780Y0278284D01*
X0267265Y0274922D02*
X0273170Y0269017D01*
X0267265Y0274922D02*
X0264863Y0274922D01*
X0291810Y0250471D02*
X0291810Y0234723D01*
X0284765Y0227678D01*
X0284765Y0182402D01*
X0292796Y0174371D01*
X0292796Y0158780D01*
X0290022Y0154204D02*
X0282796Y0161430D01*
X0282796Y0223741D01*
X0278308Y0228229D01*
X0274765Y0228229D01*
X0290670Y0223839D02*
X0290670Y0219804D01*
X0292639Y0217835D01*
X0292639Y0205808D01*
X0292422Y0205808D01*
X0288702Y0202087D01*
X0286733Y0200119D01*
X0286733Y0186517D01*
X0289804Y0183446D01*
X0292816Y0180434D01*
X0300335Y0180434D01*
X0304056Y0178288D02*
X0304056Y0176828D01*
X0303262Y0176035D01*
X0297215Y0176035D01*
X0292816Y0180434D01*
X0289804Y0187580D02*
X0290532Y0188308D01*
X0300335Y0188308D01*
X0304056Y0190454D02*
X0304056Y0192639D01*
X0300513Y0196182D01*
X0290670Y0196182D01*
X0288702Y0198150D01*
X0288702Y0202087D01*
X0292639Y0202087D02*
X0298230Y0202087D01*
X0294607Y0198465D01*
X0292639Y0202087D02*
X0292639Y0202304D01*
X0298230Y0202087D02*
X0301273Y0202087D01*
X0302857Y0203672D01*
X0306042Y0203672D01*
X0307022Y0202692D01*
X0307022Y0192097D01*
X0307057Y0192062D01*
X0307057Y0190602D01*
X0307206Y0190454D01*
X0308780Y0190454D02*
X0308780Y0191914D01*
X0314292Y0197425D01*
X0314292Y0201989D01*
X0332418Y0220115D01*
X0333977Y0220115D01*
X0319690Y0231304D02*
X0312324Y0231304D01*
X0319690Y0231304D02*
X0330040Y0241654D01*
X0321347Y0236064D02*
X0320560Y0236851D01*
X0303780Y0236851D01*
X0302481Y0235552D01*
X0310355Y0239264D02*
X0320198Y0239264D01*
X0294607Y0227776D02*
X0290670Y0223839D01*
X0292639Y0217835D02*
X0304351Y0206123D01*
X0304450Y0206123D01*
X0314292Y0206123D01*
X0305631Y0200808D02*
X0305631Y0190454D01*
X0305631Y0200808D02*
X0304450Y0201989D01*
X0307206Y0178288D02*
X0307206Y0176828D01*
X0305025Y0174647D01*
X0304450Y0174647D01*
X0302600Y0174647D01*
X0300513Y0172560D01*
X0300513Y0168623D02*
X0306418Y0168623D01*
X0310355Y0172560D01*
X0310355Y0178288D01*
X0308780Y0178288D02*
X0308780Y0175236D01*
X0304450Y0170906D01*
X0306098Y0166340D02*
X0299567Y0166340D01*
X0297284Y0168623D01*
X0295198Y0168623D01*
X0306098Y0166340D02*
X0311943Y0172186D01*
X0338603Y0172186D01*
X0338327Y0169903D02*
X0338603Y0169627D01*
X0338327Y0169903D02*
X0324135Y0169903D01*
X0328072Y0166988D02*
X0338524Y0166988D01*
X0338603Y0167068D01*
X0338524Y0162029D02*
X0338603Y0161950D01*
X0338524Y0162029D02*
X0310355Y0162029D01*
X0312324Y0164509D02*
X0316261Y0168446D01*
X0316261Y0168623D01*
X0326103Y0178465D02*
X0337914Y0190276D01*
X0351694Y0190276D01*
X0338603Y0177304D02*
X0338603Y0174745D01*
X0338603Y0159391D02*
X0304902Y0159391D01*
X0304292Y0158780D01*
X0300146Y0158780D01*
X0295570Y0154204D01*
X0290022Y0154204D01*
X0289583Y0151320D02*
X0338209Y0151320D01*
X0338603Y0151713D01*
X0338387Y0154056D02*
X0338603Y0154272D01*
X0338387Y0154056D02*
X0309961Y0154056D01*
X0309765Y0154253D01*
X0316261Y0156812D02*
X0316280Y0156831D01*
X0338603Y0156831D01*
X0338603Y0149154D02*
X0338603Y0146389D01*
X0338603Y0145995D01*
X0314292Y0129410D02*
X0314292Y0127442D01*
X0312324Y0127442D02*
X0314292Y0129410D01*
X0298544Y0129410D02*
X0298544Y0127442D01*
X0286733Y0144616D02*
X0286733Y0155531D01*
X0281409Y0160855D01*
X0281409Y0171585D01*
X0274765Y0178229D01*
X0264765Y0178229D02*
X0257206Y0170670D01*
X0257206Y0166654D01*
X0264765Y0168229D02*
X0269183Y0168229D01*
X0273130Y0164283D01*
X0274753Y0164283D01*
X0284450Y0154585D01*
X0289016Y0150906D02*
X0289169Y0150906D01*
X0289583Y0151320D01*
X0286733Y0144616D02*
X0274322Y0132206D01*
X0252284Y0132206D01*
X0251300Y0131221D01*
X0245394Y0131221D02*
X0245394Y0139095D01*
X0239489Y0145001D01*
X0239489Y0154843D01*
X0245394Y0160749D01*
X0241457Y0164686D02*
X0235552Y0158780D01*
X0235552Y0143032D01*
X0239489Y0139095D01*
X0239489Y0131221D01*
X0225670Y0141064D02*
X0223524Y0141064D01*
X0208209Y0141064D02*
X0205867Y0141064D01*
X0200119Y0141861D02*
X0200119Y0176565D01*
X0194213Y0182402D02*
X0192245Y0184371D01*
X0194213Y0182402D02*
X0194213Y0074234D01*
X0210661Y0057787D01*
X0247799Y0057787D01*
X0251243Y0061231D01*
X0255255Y0061231D01*
X0256624Y0059861D01*
X0256624Y0059775D01*
X0258131Y0058269D01*
X0258780Y0057619D01*
X0258780Y0049906D01*
X0254627Y0053233D02*
X0251300Y0049906D01*
X0238540Y0049906D01*
X0236635Y0051812D01*
X0235128Y0053318D01*
X0235128Y0053405D01*
X0233858Y0054675D01*
X0208161Y0054675D01*
X0207402Y0055434D01*
X0213898Y0068229D02*
X0213898Y0070001D01*
X0214528Y0070631D01*
X0214528Y0078505D02*
X0215965Y0079942D01*
X0221871Y0079942D01*
X0227875Y0085946D01*
X0229863Y0085946D01*
X0235769Y0091851D01*
X0239272Y0091851D02*
X0239272Y0090674D01*
X0234544Y0085946D01*
X0237520Y0085946D01*
X0234544Y0085946D02*
X0230410Y0081812D01*
X0230410Y0074331D02*
X0230213Y0074135D01*
X0240694Y0078072D02*
X0240853Y0078231D01*
X0260158Y0090867D02*
X0266064Y0090867D01*
X0270985Y0085946D01*
X0394544Y0085946D01*
X0398972Y0081517D01*
X0403391Y0081517D01*
X0406516Y0084642D01*
X0406516Y0107303D01*
X0414686Y0115473D01*
X0404843Y0115473D02*
X0404843Y0088771D01*
X0405128Y0088486D01*
X0405128Y0085216D01*
X0402817Y0082905D01*
X0399547Y0082905D01*
X0392569Y0089883D01*
X0282796Y0089883D01*
X0258072Y0113505D02*
X0249331Y0113505D01*
X0245394Y0109568D01*
X0258072Y0113505D02*
X0272796Y0128229D01*
X0274765Y0128229D01*
X0225709Y0158780D02*
X0225398Y0158780D01*
X0225631Y0158780D01*
X0225670Y0158741D01*
X0200119Y0141861D02*
X0198150Y0139893D01*
X0178711Y0156594D02*
X0178711Y0162176D01*
X0184765Y0168229D01*
X0180818Y0174283D02*
X0173130Y0174283D01*
X0172668Y0174745D01*
X0158780Y0174745D01*
X0158780Y0178249D02*
X0158780Y0186556D01*
X0164686Y0180650D01*
X0164686Y0180434D01*
X0151816Y0183461D02*
X0151816Y0173402D01*
X0158780Y0166438D01*
X0160287Y0164440D02*
X0160373Y0164440D01*
X0162587Y0166654D01*
X0166654Y0166654D01*
X0160287Y0164440D02*
X0158780Y0162934D01*
X0158780Y0154627D01*
X0160287Y0152629D02*
X0160373Y0152629D01*
X0174765Y0167021D01*
X0174765Y0168229D01*
X0180818Y0174283D02*
X0184765Y0178229D01*
X0192245Y0192245D02*
X0186261Y0198229D01*
X0184765Y0198229D01*
X0200119Y0204056D02*
X0205158Y0204056D01*
X0210670Y0209568D01*
X0180818Y0234283D02*
X0174765Y0228229D01*
X0150906Y0227461D02*
X0150906Y0238284D01*
X0150906Y0223957D02*
X0149090Y0222141D01*
X0126446Y0222141D01*
X0122975Y0225611D01*
X0119467Y0225611D01*
X0116986Y0223131D01*
X0116986Y0218291D01*
X0131221Y0204056D01*
X0139686Y0175513D02*
X0125316Y0161143D01*
X0125316Y0146753D01*
X0135158Y0136910D01*
X0135158Y0133406D02*
X0135158Y0125339D01*
X0135788Y0124709D01*
X0132048Y0114646D02*
X0125316Y0121379D01*
X0132048Y0114646D02*
X0132048Y0114426D01*
X0132048Y0106280D01*
X0133367Y0104961D01*
X0136871Y0104961D02*
X0139528Y0107619D01*
X0139528Y0114426D01*
X0151477Y0104961D02*
X0135257Y0088741D01*
X0135257Y0084056D01*
X0138761Y0084056D02*
X0147166Y0084056D01*
X0148269Y0082954D01*
X0149486Y0086291D02*
X0146282Y0086291D01*
X0145700Y0086873D01*
X0145700Y0090845D01*
X0146775Y0091920D01*
X0157027Y0091920D01*
X0157609Y0092503D01*
X0157609Y0104459D01*
X0166654Y0113505D01*
X0170591Y0113505D02*
X0160946Y0103859D01*
X0160946Y0094489D01*
X0163514Y0092503D02*
X0159871Y0088859D01*
X0148269Y0088859D01*
X0149486Y0086291D02*
X0155119Y0080658D01*
X0155119Y0077402D01*
X0161024Y0077402D02*
X0161024Y0068406D01*
X0160670Y0068052D01*
X0172560Y0072560D02*
X0172954Y0072166D01*
X0182619Y0072166D01*
X0181044Y0092245D02*
X0172560Y0092245D01*
X0181044Y0092245D02*
X0182619Y0093820D01*
X0163514Y0092503D02*
X0163514Y0102491D01*
X0174528Y0113505D01*
X0158780Y0127501D02*
X0147430Y0127501D01*
X0139772Y0135158D01*
X0158780Y0139312D02*
X0158780Y0131005D01*
X0158780Y0139312D02*
X0160287Y0140818D01*
X0160373Y0140818D01*
X0166524Y0146969D01*
X0166654Y0146969D01*
X0168897Y0154283D02*
X0158780Y0144166D01*
X0158780Y0142816D01*
X0158780Y0151123D02*
X0160287Y0152629D01*
X0168897Y0154283D02*
X0176399Y0154283D01*
X0178711Y0156594D01*
X0154981Y0104961D02*
X0154981Y0094548D01*
X0155040Y0094489D01*
X0213898Y0080040D02*
X0213898Y0079135D01*
X0214528Y0078505D01*
X0254627Y0058269D02*
X0254627Y0053233D01*
X0253993Y0040670D02*
X0255040Y0039623D01*
X0253993Y0040670D02*
X0237304Y0040670D01*
X0233800Y0040670D02*
X0211930Y0040670D01*
X0367146Y0150906D02*
X0367146Y0151713D01*
X0367146Y0154272D02*
X0367146Y0156831D01*
X0368347Y0155631D01*
X0367146Y0159391D02*
X0367146Y0160581D01*
X0367146Y0161950D01*
X0367146Y0164509D02*
X0367146Y0166054D01*
X0367146Y0167068D01*
X0367146Y0169627D02*
X0367146Y0170591D01*
X0367146Y0172186D02*
X0368741Y0170591D01*
X0367146Y0174745D02*
X0367146Y0175542D01*
X0396576Y0170434D02*
X0412560Y0170434D01*
X0422560Y0180434D01*
X0422560Y0321842D01*
X0412541Y0331861D01*
X0409272Y0331861D01*
X0405325Y0327914D01*
X0400906Y0327914D01*
X0410906Y0337914D02*
X0432402Y0316418D01*
X0432402Y0089883D01*
X0427303Y0086752D02*
X0427303Y0139706D01*
X0396576Y0170434D01*
X0396576Y0181339D02*
X0402875Y0187639D01*
X0402875Y0203721D01*
X0407757Y0208603D01*
X0427303Y0086752D02*
X0413456Y0072905D01*
X0409547Y0072905D01*
X0405601Y0076851D01*
X0401182Y0076851D01*
D38*
X0432402Y0089883D03*
X0328072Y0166988D03*
X0324135Y0169903D03*
X0316261Y0156812D03*
X0309765Y0154253D03*
X0310355Y0162029D03*
X0304450Y0170906D03*
X0300513Y0172560D03*
X0300513Y0168623D03*
X0295198Y0168623D03*
X0284450Y0154585D03*
X0289016Y0150906D03*
X0257206Y0166654D03*
X0294607Y0198465D03*
X0351694Y0190276D03*
X0255237Y0274411D03*
X0192245Y0192245D03*
X0192245Y0184371D03*
X0200119Y0176565D03*
X0166654Y0166654D03*
X0164686Y0180434D03*
X0166654Y0146969D03*
X0198150Y0139893D03*
X0245394Y0109568D03*
X0237520Y0085946D03*
X0223741Y0044813D03*
X0282796Y0089883D03*
X0125316Y0121379D03*
D39*
X0249331Y0227678D03*
D40*
X0243426Y0233583D01*
X0243426Y0259391D01*
X0243426Y0262894D02*
X0243426Y0272560D01*
X0243820Y0272954D01*
X0249725Y0272954D02*
X0257206Y0265473D01*
X0257206Y0259174D01*
D41*
X0270985Y0101694D02*
X0272954Y0101694D01*
D42*
X0272954Y0101851D01*
X0298544Y0127442D01*
X0312324Y0127442D01*
X0314292Y0127442D02*
X0336103Y0127442D01*
X0357599Y0148938D01*
X0338603Y0145995D02*
X0333514Y0140906D01*
X0314292Y0140906D01*
X0298544Y0140906D01*
X0297679Y0140906D01*
X0282254Y0125482D01*
X0282254Y0125127D01*
X0269993Y0112865D01*
X0267196Y0112865D01*
X0256024Y0101694D01*
X0253269Y0101694D01*
X0260158Y0090867D02*
X0257174Y0087883D01*
X0257174Y0076103D01*
X0245363Y0064292D01*
X0213898Y0064292D01*
X0260158Y0090867D02*
X0270985Y0101694D01*
D43*
X0253269Y0101694D02*
X0253269Y0101290D01*
X0246928Y0094950D01*
X0246928Y0084306D01*
X0240853Y0078231D01*
X0230213Y0074135D02*
X0223741Y0074135D01*
X0217835Y0080040D01*
X0213898Y0080040D01*
X0213898Y0068229D02*
X0213898Y0064292D01*
D44*
X0210670Y0209568D02*
X0211064Y0209961D01*
X0237520Y0209961D01*
X0257206Y0229646D01*
X0257206Y0251300D01*
X0257206Y0259174D01*
X0263111Y0265080D01*
X0264135Y0258229D02*
X0264765Y0258229D01*
X0274765Y0258229D01*
X0284052Y0258229D01*
X0290981Y0251300D01*
X0264135Y0258229D02*
X0257206Y0251300D01*
D45*
X0231615Y0278859D03*
X0227678Y0294607D03*
X0215867Y0300513D03*
X0217835Y0306418D03*
X0204056Y0290670D03*
X0190276Y0282796D03*
X0167442Y0270985D03*
X0163326Y0263111D03*
X0166654Y0251300D03*
X0158780Y0243426D03*
X0148938Y0276891D03*
X0154843Y0200119D03*
X0164686Y0196182D03*
X0209961Y0170591D03*
X0231615Y0170591D03*
X0241457Y0164686D03*
X0245394Y0160749D03*
X0245394Y0131221D03*
X0239489Y0131221D03*
X0231615Y0127284D03*
X0251300Y0131221D03*
X0190276Y0097757D03*
X0174528Y0113505D03*
X0170591Y0113505D03*
X0166654Y0113505D03*
X0152875Y0110749D03*
X0247363Y0211930D03*
X0241457Y0225709D03*
X0302481Y0235552D03*
X0310355Y0239264D03*
X0320198Y0239264D03*
X0321347Y0236064D03*
X0326103Y0178465D03*
X0316261Y0168623D03*
D46*
X0338603Y0177304D02*
X0344981Y0177304D01*
X0347757Y0174528D01*
X0347757Y0150906D01*
X0343239Y0146389D01*
X0338603Y0146389D01*
D47*
X0307993Y0102875D03*
X0374922Y0102875D03*
X0374922Y0281615D03*
X0307993Y0281615D03*
M02*
