%
M48
M72
T01C0.01200
T02C0.01378
T03C0.01969
T04C0.02362
T05C0.03543
T06C0.03937
T07C0.04134
T08C0.07874
%
T01
X152875Y110749
X166654Y113505
X170591Y113505
X174528Y113505
X190276Y97757
X231615Y127284
X239489Y131221
X245394Y131221
X251300Y131221
X245394Y160749
X241457Y164686
X231615Y170591
X209961Y170591
X164686Y196182
X154843Y200119
X158780Y243426
X166654Y251300
X163326Y263111
X167442Y270985
X148938Y276891
X190276Y282796
X204056Y290670
X215867Y300513
X217835Y306418
X227678Y294607
X231615Y278859
X241457Y225709
X247363Y211930
X302481Y235552
X310355Y239264
X320198Y239264
X321347Y236064
X326103Y178465
X316261Y168623
T02
X125316Y121379
X166654Y146969
X166654Y166654
X164686Y180434
X192245Y184371
X192245Y192245
X200119Y176565
X198150Y139893
X245394Y109568
X237520Y85946
X223741Y44813
X282796Y89883
X289016Y150906
X284450Y154585
X295198Y168623
X300513Y168623
X300513Y172560
X304450Y170906
X310355Y162029
X309765Y154253
X316261Y156812
X328072Y166988
X324135Y169903
X351694Y190276
X294607Y198465
X257206Y166654
X255237Y274411
X432402Y89883
T03
X249331Y227678
T04
X404843Y115473
X414686Y115473
X424528Y115473
T05
X214528Y78505
X214528Y70631
T06
X211930Y50670
X211930Y40670
X191930Y40670
X191930Y50670
X184765Y128229
X184765Y138229
X174765Y138229
X174765Y128229
X174765Y148229
X184765Y148229
X184765Y158229
X184765Y168229
X174765Y168229
X174765Y158229
X174765Y178229
X184765Y178229
X184765Y188229
X174765Y188229
X174765Y198229
X184765Y198229
X184765Y208229
X174765Y208229
X174765Y218229
X184765Y218229
X184765Y228229
X184765Y238229
X174765Y238229
X174765Y228229
X174765Y248229
X184765Y248229
X184765Y258229
X174765Y258229
X129882Y226376
X121221Y221376
X131221Y204056
X139882Y209056
X131026Y180513
X139686Y175513
X129686Y158192
X121026Y163192
X264765Y158229
X274765Y158229
X274765Y148229
X264765Y148229
X264765Y138229
X274765Y138229
X274765Y128229
X264765Y128229
X264765Y168229
X274765Y168229
X274765Y178229
X274765Y188229
X264765Y188229
X264765Y178229
X264765Y198229
X274765Y198229
X274765Y208229
X264765Y208229
X264765Y218229
X274765Y218229
X274765Y228229
X274765Y238229
X264765Y238229
X264765Y228229
X264765Y248229
X274765Y248229
X274765Y258229
X264765Y258229
X306733Y184371
X401182Y86851
X411182Y86851
X411182Y76851
X411182Y66851
X401182Y66851
X401182Y76851
X401182Y56851
X401182Y46851
X411182Y46851
X411182Y56851
X410906Y297914
X400906Y297914
X400906Y307914
X410906Y307914
X410906Y317914
X400906Y317914
X400906Y327914
X410906Y327914
X410906Y337914
X400906Y337914
X211930Y333820
X211930Y343820
X191930Y343820
X191930Y333820
T07
X396576Y214056
X396576Y203150
X396576Y192245
X396576Y181339
X396576Y170434
X407757Y175887
X407757Y186792
X407757Y197698
X407757Y208603
T08
X374922Y281615
X307993Y281615
X307993Y102875
X374922Y102875
M30
