G75*
%MOIN*%
%OFA0B0*%
%FSLAX25Y25*%
%IPPOS*%
%LPD*%
%AMOC8*
5,1,8,0,0,1.08239X$1,22.5*
%
%ADD10C,0.00000*%
D10*
X0105631Y0113505D02*
X0105631Y0270985D01*
X0105654Y0272888D01*
X0105723Y0274789D01*
X0105838Y0276689D01*
X0105999Y0278585D01*
X0106205Y0280476D01*
X0106457Y0282362D01*
X0106755Y0284241D01*
X0107098Y0286113D01*
X0107486Y0287976D01*
X0107919Y0289829D01*
X0108397Y0291671D01*
X0108919Y0293500D01*
X0109485Y0295317D01*
X0110095Y0297119D01*
X0110748Y0298907D01*
X0111444Y0300677D01*
X0112183Y0302431D01*
X0112964Y0304166D01*
X0113786Y0305882D01*
X0114650Y0307577D01*
X0115555Y0309251D01*
X0116500Y0310903D01*
X0117484Y0312531D01*
X0118507Y0314136D01*
X0119569Y0315714D01*
X0120669Y0317267D01*
X0121806Y0318793D01*
X0122979Y0320291D01*
X0124189Y0321760D01*
X0125433Y0323199D01*
X0126712Y0324608D01*
X0128025Y0325986D01*
X0129370Y0327331D01*
X0130748Y0328644D01*
X0132157Y0329923D01*
X0133596Y0331167D01*
X0135065Y0332377D01*
X0136563Y0333550D01*
X0138089Y0334687D01*
X0139642Y0335787D01*
X0141220Y0336849D01*
X0142825Y0337872D01*
X0144453Y0338856D01*
X0146105Y0339801D01*
X0147779Y0340706D01*
X0149474Y0341570D01*
X0151190Y0342392D01*
X0152925Y0343173D01*
X0154679Y0343912D01*
X0156449Y0344608D01*
X0158237Y0345261D01*
X0160039Y0345871D01*
X0161856Y0346437D01*
X0163685Y0346959D01*
X0165527Y0347437D01*
X0167380Y0347870D01*
X0169243Y0348258D01*
X0171115Y0348601D01*
X0172994Y0348899D01*
X0174880Y0349151D01*
X0176771Y0349357D01*
X0178667Y0349518D01*
X0180567Y0349633D01*
X0182468Y0349702D01*
X0184371Y0349725D01*
X0263111Y0349725D01*
X0263111Y0302481D01*
X0361536Y0302481D01*
X0361536Y0349725D01*
X0440276Y0349725D01*
X0440276Y0034765D01*
X0361536Y0034765D01*
X0361536Y0082009D01*
X0263111Y0082009D01*
X0263111Y0034765D01*
X0184371Y0034765D01*
X0182468Y0034788D01*
X0180567Y0034857D01*
X0178667Y0034972D01*
X0176771Y0035133D01*
X0174880Y0035339D01*
X0172994Y0035591D01*
X0171115Y0035889D01*
X0169243Y0036232D01*
X0167380Y0036620D01*
X0165527Y0037053D01*
X0163685Y0037531D01*
X0161856Y0038053D01*
X0160039Y0038619D01*
X0158237Y0039229D01*
X0156449Y0039882D01*
X0154679Y0040578D01*
X0152925Y0041317D01*
X0151190Y0042098D01*
X0149474Y0042920D01*
X0147779Y0043784D01*
X0146105Y0044689D01*
X0144453Y0045634D01*
X0142825Y0046618D01*
X0141220Y0047641D01*
X0139642Y0048703D01*
X0138089Y0049803D01*
X0136563Y0050940D01*
X0135065Y0052113D01*
X0133596Y0053323D01*
X0132157Y0054567D01*
X0130748Y0055846D01*
X0129370Y0057159D01*
X0128025Y0058504D01*
X0126712Y0059882D01*
X0125433Y0061291D01*
X0124189Y0062730D01*
X0122979Y0064199D01*
X0121806Y0065697D01*
X0120669Y0067223D01*
X0119569Y0068776D01*
X0118507Y0070354D01*
X0117484Y0071959D01*
X0116500Y0073587D01*
X0115555Y0075239D01*
X0114650Y0076913D01*
X0113786Y0078608D01*
X0112964Y0080324D01*
X0112183Y0082059D01*
X0111444Y0083813D01*
X0110748Y0085583D01*
X0110095Y0087371D01*
X0109485Y0089173D01*
X0108919Y0090990D01*
X0108397Y0092819D01*
X0107919Y0094661D01*
X0107486Y0096514D01*
X0107098Y0098377D01*
X0106755Y0100249D01*
X0106457Y0102128D01*
X0106205Y0104014D01*
X0105999Y0105905D01*
X0105838Y0107801D01*
X0105723Y0109701D01*
X0105654Y0111602D01*
X0105631Y0113505D01*
M02*
