M48
;GenerationSoftware,Autodesk,EAGLE,9.6.2*%
;CreationDate,2021-04-17T05:56:09Z*%
FMAT,2
ICI,OFF
METRIC,TZ,000.000
T8C0.305
T7C0.350
T6C0.500
T5C0.600
T4C0.900
T3C1.000
T2C1.050
T1C2.000
%
G90
M71
T1
X51400Y62700
X68400Y62700
X51400Y17300
X68400Y17300
T2
X73900Y45540
X76740Y35845
X76740Y38615
X76740Y41385
X76740Y44155
X73900Y34460
X73900Y37230
X73900Y40000
X73900Y42770
T3
X40420Y41520
X42960Y44060
X40420Y44060
X42960Y46600
X40420Y46600
X42960Y49140
X40420Y49140
X42960Y51680
X40420Y51680
X42960Y54220
X40420Y54220
X42960Y56760
X40420Y56760
X20100Y23740
X17560Y23740
X20100Y26280
X17560Y26280
X20100Y28820
X17560Y28820
X20100Y31360
X17560Y31360
X20100Y33900
X77540Y69380
X17560Y33900
X20100Y36440
X17560Y36440
X17560Y38980
X20100Y41520
X17560Y41520
X20100Y44060
X17560Y44060
X20100Y46600
X17560Y46600
X20100Y49140
X17560Y49140
X20100Y51680
X17560Y51680
X20100Y54220
X17560Y54220
X20100Y56760
X17560Y56760
X6110Y31351
X8650Y35750
X3910Y32621
X3960Y47399
X6500Y43000
X6160Y48669
X8700Y44270
X21920Y75960
X27000Y75960
X21920Y78500
X27000Y78500
X21920Y1500
X27000Y1500
X21920Y4040
X27000Y4040
X51080Y38000
X6450Y37020
X75070Y13230
X77610Y13230
X75070Y10690
X77610Y10690
X75070Y8150
X77610Y8150
X75070Y5610
X77610Y5610
X75070Y3070
X77610Y3070
X75000Y77000
X77540Y77000
X75000Y74460
X77540Y74460
X75000Y71920
X77540Y71920
X75000Y69380
X20100Y38980
X75000Y66840
X77540Y66840
X42960Y23740
X40420Y23740
X42960Y26280
X40420Y26280
X42960Y28820
X40420Y28820
X42960Y31360
X40420Y31360
X42960Y33900
X40420Y33900
X42960Y36440
X40420Y36440
X42960Y38980
X40420Y38980
X42960Y41520
T4
X27660Y9110
X27660Y11110
T5
X78500Y20500
X81000Y20500
X76000Y20500
T6
X36500Y49000
T7
X83000Y14000
X62500Y39500
X52000Y32325
X23500Y26703
X24000Y36017
X38000Y60870
X38500Y33500
X33500Y13000
X45000Y14000
X35500Y19000
X30000Y2552
X22000Y40000
X49500Y35000
X15500Y28500
X50500Y34580
X15500Y33500
X49500Y34000
X15000Y37000
X48000Y41580
X22000Y38000
X5000Y22000
X48150Y34000
X56500Y33585
X55500Y34325
X53500Y31000
X51850Y30350
X45420Y30435
X46580Y29500
T8
X12000Y19300
X21500Y16000
X25000Y65000
X28500Y69000
X53500Y34000
X32000Y23500
X36000Y45000
X34500Y48500
X32000Y62000
X31000Y66000
X12500Y42000
X15000Y41000
X26500Y34500
X15500Y20000
X34500Y33000
X34000Y24500
X11000Y61500
X52000Y51943
X54500Y51943
X28000Y67500
X50000Y51000
X48000Y39500
X51750Y40875
X14655Y58000
X21500Y63000
X13500Y53000
X32000Y34500
X56000Y36500
X15500Y55000
X15700Y60000
X16500Y20000
X35500Y32000
X35500Y24500
X17500Y20000
X37000Y24500
X54792Y51130
M30